<svg width="150" height="63" viewBox="0 0 150 63" fill="none" xmlns="http://www.w3.org/2000/svg">
<g clip-path="url(#clip0_74_617)">
<mask id="mask0_74_617" style="mask-type:luminance" maskUnits="userSpaceOnUse" x="0" y="0" width="150" height="63">
<path d="M0 -7.62939e-06H150V63H0V-7.62939e-06Z" fill="white"/>
</mask>
<g mask="url(#mask0_74_617)">
<path d="M20.3987 34.8647H12.8799C10.9112 34.8647 9.31494 33.0838 9.31494 30.8866V22.3524C9.31494 20.1555 10.9112 18.3742 12.8799 18.3742H20.3987C22.3674 18.3742 23.9637 20.1555 23.9637 22.3524V30.8866C23.9637 33.0838 22.3677 34.8647 20.3987 34.8647Z" fill="black"/>
<path d="M12.2319 21.0437H14.5402V25.6267H18.7969V21.0437H21.1049V32.6254H18.7969V27.976H14.5402V32.6254H12.2319V21.0437Z" fill="white"/>
<path d="M84.2869 34.8956H76.7681C74.7994 34.8956 73.2031 33.1146 73.2031 30.9174V22.3833C73.2031 20.1863 74.7994 18.4051 76.7681 18.4051H84.2869C86.2559 18.4051 87.8519 20.1863 87.8519 22.3833V30.9174C87.8519 33.1146 86.2559 34.8956 84.2869 34.8956Z" fill="black"/>
<path d="M79.3732 23.2083H76.1812V20.8585H84.8732V23.2083H81.6809V32.4421H79.3732V23.2083Z" fill="white"/>
<path d="M99.4421 34.8956H91.9234C89.9546 34.8956 88.3584 33.1146 88.3584 30.9174V22.3833C88.3584 20.1863 89.9546 18.4051 91.9234 18.4051H99.4421C101.411 18.4051 103.007 20.1863 103.007 22.3836V30.9174C103.007 33.1146 101.411 34.8956 99.4421 34.8956Z" fill="black"/>
<path d="M91.2471 20.8587H93.5548V25.4422H97.8108V20.8587H100.119V32.442H97.8108V27.7923H93.5548V32.442H91.2471V20.8587Z" fill="white"/>
<path d="M133.019 34.8956H125.501C123.532 34.8956 121.936 33.1146 121.936 30.9174V22.3833C121.936 20.1863 123.532 18.4051 125.501 18.4051H133.019C134.988 18.4051 136.584 20.1863 136.584 22.3833V30.9174C136.584 33.1146 134.988 34.8956 133.019 34.8956Z" fill="black"/>
<path d="M124.599 20.8587H126.727L131.642 27.9907V20.8587H133.92V32.442H131.957L126.877 25.0782V32.442H124.599V20.8587Z" fill="white"/>
<path d="M69.1311 34.8956H61.6124C59.6436 34.8956 58.0474 33.1146 58.0474 30.9174V22.3833C58.0474 20.1863 59.6436 18.4051 61.6124 18.4051H69.1311C71.1001 18.4051 72.6961 20.1863 72.6961 22.3833V30.9174C72.6961 33.1146 71.1001 34.8956 69.1311 34.8956Z" fill="black"/>
<path d="M61.3779 20.8587H69.2904V23.1259H63.6707V25.4754H68.6162V27.7424H63.6707V30.1751H69.3654V32.442H61.3779V20.8587Z" fill="white"/>
<path d="M53.9758 34.8956H46.4571C44.4883 34.8956 42.8921 33.1146 42.8921 30.9174V22.3833C42.8921 20.1863 44.4883 18.4051 46.4571 18.4051H53.9758C55.9448 18.4051 57.5408 20.1863 57.5408 22.3833V30.9174C57.5408 33.1146 55.9448 34.8956 53.9758 34.8956Z" fill="black"/>
<path d="M44.9712 20.8587H47.4587L50.2162 25.7566L52.9737 20.8587H55.4614V32.442H53.1684V24.8795L50.2162 29.8277H50.1562L47.2342 24.9295V32.442H44.9712V20.8587Z" fill="white"/>
<path d="M38.8202 36.4358H28.0352C26.0662 36.4358 24.4702 34.6548 24.4702 32.4576V20.2465C24.4702 18.0496 26.0662 16.2683 28.0352 16.2683H38.8202C40.7892 16.2683 42.3852 18.0496 42.3852 20.2465V32.4576C42.3852 34.6548 40.7892 36.4358 38.8202 36.4358Z" fill="black"/>
<path d="M38.4309 26.3989V26.352C38.4309 23.1826 36.3411 20.549 33.4069 20.549C30.4729 20.549 28.4251 23.1357 28.4251 26.3054V26.352C28.4251 29.5217 30.5149 32.1321 33.4491 32.1321C36.3831 32.1321 38.4309 29.5683 38.4309 26.3989ZM25.7021 26.3989V26.352C25.7021 21.7606 28.9109 17.9152 33.4491 17.9152C37.9876 17.9152 41.1539 21.714 41.1539 26.3054V26.352C41.1539 30.9434 37.9451 34.7891 33.4069 34.7891C28.8684 34.7891 25.7021 30.9902 25.7021 26.3989Z" fill="white"/>
<path d="M117.864 36.4358H107.079C105.11 36.4358 103.514 34.6548 103.514 32.4576V20.2465C103.514 18.0496 105.11 16.2683 107.079 16.2683H117.864C119.832 16.2683 121.429 18.0496 121.429 20.2465V32.4576C121.429 34.6548 119.833 36.4358 117.864 36.4358Z" fill="black"/>
<path d="M117.474 26.3989V26.352C117.474 23.1826 115.385 20.549 112.45 20.549C109.516 20.549 107.469 23.1357 107.469 26.3054V26.352C107.469 29.5217 109.558 32.1321 112.493 32.1321C115.427 32.1321 117.474 29.5683 117.474 26.3989ZM104.746 26.3989V26.352C104.746 21.7606 107.954 17.9152 112.493 17.9152C117.031 17.9152 120.198 21.714 120.198 26.3054V26.352C120.198 30.9434 116.989 34.7891 112.45 34.7891C107.912 34.7891 104.746 30.9902 104.746 26.3989Z" fill="white"/>
<path d="M136.762 17.4304H136.068V16.9202H137.957V17.4304H137.263V19.4354H136.762V17.4304Z" fill="#231F20"/>
<path d="M138.406 16.9203H138.946L139.545 17.9838L140.144 16.9203H140.685V19.4355H140.187V17.7935L139.545 18.8678H139.532L138.897 17.8041V19.4355H138.406V16.9203Z" fill="#231F20"/>
<path d="M30.3355 43.6426C30.9293 43.6426 31.2763 43.2467 31.2763 42.7303V42.7133C31.2763 42.1196 30.9063 41.8011 30.3125 41.8011H29.3948V43.6426H30.3355ZM28.2075 40.6051H30.4128C31.7003 40.6051 32.479 41.4571 32.479 42.6874V42.7047C32.479 44.0987 31.5075 44.8212 30.297 44.8212H29.3948V46.6282H28.2075V40.6051Z" fill="#231F20"/>
<path d="M35.7486 43.5307C36.3269 43.5307 36.6586 43.1864 36.6586 42.6787V42.6617C36.6586 42.0937 36.3039 41.8011 35.7256 41.8011H34.5456V43.5307H35.7486ZM33.3584 40.6051H35.8259C36.5121 40.6051 37.0441 40.8202 37.3989 41.216C37.6996 41.5517 37.8614 42.0248 37.8614 42.5928V42.6101C37.8614 43.5823 37.3909 44.1933 36.7049 44.4773L38.0234 46.6282H36.6354L35.4789 44.701H35.4634H34.5456V46.6282H33.3584V40.6051Z" fill="#231F20"/>
<path d="M43.1893 43.634V43.6167C43.1893 42.5842 42.5108 41.7238 41.5546 41.7238C40.5986 41.7238 39.9353 42.5669 39.9353 43.5997V43.6167C39.9353 44.6494 40.6138 45.5098 41.5701 45.5098C42.5261 45.5098 43.1893 44.6665 43.1893 43.634ZM38.6938 43.634V43.6167C38.6938 41.9043 39.9046 40.5019 41.5701 40.5019C43.2356 40.5019 44.4306 41.8873 44.4306 43.5997V43.6167C44.4306 45.329 43.2201 46.7314 41.5546 46.7314C39.8891 46.7314 38.6938 45.3463 38.6938 43.634Z" fill="#231F20"/>
<path d="M47.6153 43.6426C48.2091 43.6426 48.5561 43.2467 48.5561 42.7303V42.7133C48.5561 42.1196 48.1861 41.8011 47.5923 41.8011H46.6746V43.6426H47.6153ZM45.4873 40.6051H47.6926C48.9801 40.6051 49.7588 41.4571 49.7588 42.6874V42.7047C49.7588 44.0987 48.7873 44.8212 47.5768 44.8212H46.6746V46.6282H45.4873V40.6051Z" fill="#231F20"/>
<path d="M50.6382 40.6052H54.7094V41.7842H51.8179V43.0058H54.3624V44.1847H51.8179V45.4496H54.7479V46.6283H50.6382V40.6052Z" fill="#231F20"/>
<path d="M58.1944 43.5307C58.7727 43.5307 59.1044 43.1864 59.1044 42.6787V42.6617C59.1044 42.0937 58.7497 41.8011 58.1714 41.8011H56.9914V43.5307H58.1944ZM55.8042 40.6051H58.2717C58.9579 40.6051 59.4899 40.8202 59.8447 41.216C60.1454 41.5517 60.3072 42.0248 60.3072 42.5928V42.6101C60.3072 43.5823 59.8367 44.1933 59.1507 44.4773L60.4692 46.6282H59.0812L57.9247 44.701H57.9092H56.9914V46.6282H55.8042V40.6051Z" fill="#231F20"/>
<path d="M62.6359 41.8271H60.9937V40.6052H65.4657V41.8271H63.8234V46.6283H62.6359V41.8271Z" fill="#231F20"/>
<path d="M67.8946 44.2535L65.8203 40.6053H67.2083L68.4961 43.0229L69.8068 40.6053H71.1563L69.0821 44.2278V46.6284H67.8946V44.2535Z" fill="#231F20"/>
<path d="M74.21 40.6052H78.2812V41.7842H75.3897V43.0058H77.9342V44.1847H75.3897V45.4496H78.3197V46.6283H74.21V40.6052Z" fill="#231F20"/>
<path d="M80.8488 43.5651L79.0445 40.6052H80.4323L81.5658 42.5583L82.707 40.6052H84.0565L82.2523 43.5478L84.1335 46.6283H82.7455L81.535 44.5633L80.3168 46.6283H78.9673L80.8488 43.5651Z" fill="#231F20"/>
<path d="M87.1485 43.6426C87.7423 43.6426 88.0893 43.2467 88.0893 42.7303V42.7133C88.0893 42.1196 87.7193 41.8011 87.1255 41.8011H86.2078V43.6426H87.1485ZM85.0205 40.6051H87.2258C88.5133 40.6051 89.292 41.4571 89.292 42.6874V42.7047C89.292 44.0987 88.3205 44.8212 87.11 44.8212H86.2078V46.6282H85.0205V40.6051Z" fill="#231F20"/>
<path d="M94.4276 43.634V43.6167C94.4276 42.5842 93.7491 41.7238 92.7929 41.7238C91.8369 41.7238 91.1736 42.5669 91.1736 43.5997V43.6167C91.1736 44.6494 91.8521 45.5098 92.8084 45.5098C93.7644 45.5098 94.4276 44.6665 94.4276 43.634ZM89.9321 43.634V43.6167C89.9321 41.9043 91.1429 40.5019 92.8084 40.5019C94.4739 40.5019 95.6689 41.8873 95.6689 43.5997V43.6167C95.6689 45.329 94.4584 46.7314 92.7929 46.7314C91.1274 46.7314 89.9321 45.3463 89.9321 43.634Z" fill="#231F20"/>
<path d="M98.7686 45.5785L100.565 43.9351C101.236 43.3155 101.498 42.9885 101.498 42.4894C101.498 41.982 101.197 41.7066 100.773 41.7066C100.357 41.7066 100.072 41.9647 99.6708 42.5154L98.8381 41.7669C99.3701 40.9578 99.8866 40.5193 100.85 40.5193C101.969 40.5193 102.709 41.2505 102.709 42.3778V42.3948C102.709 43.4017 102.246 43.9007 101.29 44.7268L100.411 45.4839H102.763V46.6283H98.7686V45.5785Z" fill="#231F20"/>
<path d="M107.189 43.634V43.6167C107.189 42.5239 106.711 41.6982 106.001 41.6982C105.292 41.6982 104.829 42.4983 104.829 43.5997V43.6167C104.829 44.7181 105.3 45.5358 106.017 45.5358C106.734 45.5358 107.189 44.7267 107.189 43.634ZM103.611 43.634V43.6167C103.611 41.87 104.582 40.5019 106.017 40.5019C107.443 40.5019 108.407 41.8527 108.407 43.5997V43.6167C108.407 45.3636 107.443 46.7314 106.001 46.7314C104.559 46.7314 103.611 45.3806 103.611 43.634Z" fill="#231F20"/>
<path d="M109.124 45.5785L110.921 43.9351C111.592 43.3155 111.854 42.9885 111.854 42.4894C111.854 41.982 111.553 41.7066 111.129 41.7066C110.712 41.7066 110.427 41.9647 110.026 42.5154L109.194 41.7669C109.726 40.9578 110.242 40.5193 111.206 40.5193C112.324 40.5193 113.064 41.2505 113.064 42.3778V42.3948C113.064 43.4017 112.602 43.9007 111.646 44.7268L110.766 45.4839H113.118V46.6283H109.124V45.5785Z" fill="#231F20"/>
<path d="M113.843 45.6904L114.661 44.8214C115.031 45.2859 115.416 45.5442 115.964 45.5442C116.411 45.5442 116.727 45.2602 116.727 44.8128V44.7955C116.727 44.3053 116.334 44.03 115.671 44.03H115.177L114.992 43.1866L116.28 41.741H114.16V40.6053H117.807V41.6034L116.442 43.0575C117.174 43.1953 117.892 43.6255 117.892 44.7439V44.7612C117.892 45.8969 117.151 46.7316 115.948 46.7316C114.977 46.7316 114.306 46.3014 113.843 45.6904Z" fill="#231F20"/>
</g>
</g>
<defs>
<clipPath id="clip0_74_617">
<rect width="150" height="63" fill="white"/>
</clipPath>
</defs>
</svg>
