<svg width="113" height="83" viewBox="0 0 113 83" fill="none" xmlns="http://www.w3.org/2000/svg">
<g clip-path="url(#clip0_74_587)">
<mask id="mask0_74_587" style="mask-type:luminance" maskUnits="userSpaceOnUse" x="0" y="0" width="113" height="83">
<path d="M0 0H113V83H0V0Z" fill="white"/>
</mask>
<g mask="url(#mask0_74_587)">
<path d="M4.45947 63.7888V49.9971H9.64617L14.2182 57.2144C14.1562 56.8928 14.1151 56.5391 14.0912 56.1504C14.0671 55.758 14.0568 55.2499 14.0568 54.6234V49.9971H19.1644V63.7888H13.9332L9.40586 56.6292C9.46085 56.9377 9.49871 57.269 9.52583 57.6226C9.55332 57.9763 9.56745 58.3752 9.56745 58.8152V63.7888H4.45947ZM26.9282 58.7734H29.1317L28.679 57.2113C28.4592 56.4201 28.3083 55.8096 28.226 55.382C28.1467 54.9574 28.0953 54.5558 28.0744 54.1796H27.9857C27.9648 54.5558 27.9171 54.9574 27.8345 55.382C27.7556 55.8096 27.6047 56.4201 27.3811 57.2113L26.9282 58.7734ZM19.9092 63.7888L25.1609 49.9971H31.0508L36.1993 63.7888H30.5084L30.0382 62.0525H26.0461L25.5931 63.7888H19.9092ZM42.2096 53.5461V56.2465H43.0332C43.5345 56.2465 43.9219 56.1308 44.1935 55.9025C44.4645 55.6715 44.5984 55.3434 44.5984 54.9158C44.5984 54.4753 44.4645 54.1376 44.1935 53.8997C43.9219 53.6651 43.5345 53.5461 43.0332 53.5461H42.2096ZM37.0197 63.7888V49.9971H43.675C45.6039 49.9971 47.0767 50.396 48.0963 51.1928C49.1152 51.9902 49.6233 53.1412 49.6233 54.6425C49.6233 55.6231 49.3659 56.4297 48.8544 57.0632C48.3432 57.6999 47.65 58.0693 46.778 58.1755L50.7151 63.7888H44.7803L42.2096 59.2395V63.7888H37.0197ZM51.7622 63.7888V49.9971H61.6096V53.7393H56.9517V55.0698H61.177V58.5998H56.9517V60.0466H61.7298V63.7888H51.7622ZM69.1198 59.5836C70.314 59.5772 71.186 59.3584 71.7354 58.9279C72.284 58.4973 72.5587 57.8251 72.5587 56.9058C72.5587 56.0088 72.2947 55.3402 71.7694 54.8995C71.2442 54.4593 70.4375 54.2405 69.3499 54.2405H69.1198V59.5836ZM63.8681 63.7888V49.9971H68.1553C69.5143 49.9971 70.6747 50.0678 71.6355 50.209C72.6004 50.3508 73.3791 50.5696 73.9835 50.8653C75.2566 51.4919 76.235 52.3244 76.9143 53.3596C77.594 54.395 77.9343 55.5781 77.9343 56.9027C77.9343 58.2205 77.594 59.394 76.9185 60.4263C76.242 61.4547 75.2636 62.2873 73.9835 62.9206C73.359 63.2228 72.5691 63.4447 71.6116 63.5827C70.6537 63.7212 69.3701 63.7888 67.7604 63.7888H63.8681ZM90.9843 55.475C90.5001 55.041 90.0091 54.7165 89.5044 54.5042C89.0002 54.2888 88.4718 54.1827 87.9153 54.1827C87.0504 54.1827 86.3538 54.4333 85.8287 54.9318C85.3034 55.43 85.0392 56.0924 85.0392 56.9218C85.0392 57.7287 85.2895 58.3752 85.7942 58.8604C86.2954 59.3424 86.9715 59.5836 87.816 59.5836C88.3238 59.5836 88.8424 59.481 89.3671 59.2781C89.8961 59.0758 90.4694 58.7543 91.0939 58.3108L90.9222 63.4962C90.3457 63.7148 89.769 63.8789 89.1922 63.9911C88.6189 64.1005 88.0422 64.1552 87.4659 64.1552C86.7483 64.1552 86.0585 64.0812 85.3925 63.93C84.7302 63.7791 84.1294 63.5634 83.5939 63.287C82.2929 62.5862 81.3113 61.6957 80.6424 60.6222C79.9762 59.5486 79.6433 58.3172 79.6433 56.9218C79.6433 55.893 79.8324 54.9382 80.2096 54.0573C80.591 53.1795 81.14 52.4051 81.8641 51.7329C82.5956 51.0548 83.4431 50.5403 84.4043 50.193C85.3652 49.8426 86.4052 49.6689 87.5241 49.6689C88.1213 49.6689 88.7085 49.7269 89.2886 49.8426C89.8685 49.9584 90.4348 50.1351 90.9843 50.3666V55.475ZM100.67 59.5256C101.415 59.5256 102.012 59.2879 102.466 58.8152C102.918 58.3396 103.145 57.7126 103.145 56.9249C103.145 56.134 102.918 55.501 102.466 55.0185C102.012 54.5396 101.415 54.2985 100.67 54.2985C99.9221 54.2985 99.3215 54.5396 98.8651 55.0252C98.4081 55.5074 98.1821 56.1407 98.1821 56.9249C98.1821 57.7126 98.4081 58.3396 98.8651 58.8152C99.3215 59.2879 99.9221 59.5256 100.67 59.5256ZM108.541 56.9218C108.541 57.9314 108.348 58.8732 107.967 59.7413C107.587 60.6125 107.027 61.3904 106.289 62.0753C105.551 62.7438 104.703 63.2615 103.739 63.6183C102.778 63.9751 101.755 64.1552 100.67 64.1552C99.5686 64.1552 98.542 63.9751 97.5809 63.6183C96.6234 63.2615 95.7719 62.7405 95.0273 62.0556C94.2964 61.3904 93.7436 60.6222 93.3698 59.7573C92.9954 58.8891 92.8066 57.9441 92.8066 56.9218C92.8066 55.8994 92.9954 54.9509 93.3698 54.0764C93.7436 53.2052 94.2964 52.4339 95.0273 51.7685C95.7654 51.0899 96.6131 50.5758 97.5709 50.2223C98.5318 49.8655 99.5616 49.6887 100.67 49.6887C101.776 49.6887 102.805 49.8655 103.766 50.2223C104.724 50.5758 105.575 51.0899 106.32 51.7685C107.044 52.4402 107.594 53.2151 107.971 54.0865C108.352 54.9605 108.541 55.9059 108.541 56.9218Z" fill="#E76825"/>
<path fill-rule="evenodd" clip-rule="evenodd" d="M37.4727 25.8682L57.5068 6.48647L77.24 25.5772L75.7638 27.273L57.5068 9.61057L39.052 27.4645L37.4727 25.8682Z" fill="#E76825"/>
<path fill-rule="evenodd" clip-rule="evenodd" d="M40.2861 28.8637L57.4729 12.2366L74.4257 28.6373L72.9495 30.3332L57.4729 15.3608L41.8655 30.46L40.2861 28.8637Z" fill="#E76825"/>
<path fill-rule="evenodd" clip-rule="evenodd" d="M49.8494 32.9883H42.9395L57.1989 18.9502L71.7723 32.9883H64.6741V39.4909L59.441 45.264V37.3583C59.441 36.3465 58.5854 35.5188 57.5396 35.5188C56.4936 35.5188 55.638 36.3465 55.638 37.3583L55.503 45.264L49.8494 39.3086V32.9883Z" fill="#E76825"/>
<path d="M32.9023 76.3633V68.8461H34.8188L39.3573 73.8505H38.452V68.8461H40.7331V76.3633H38.8164L34.2781 71.3589H35.1832V76.3633H32.9023Z" fill="#E76825"/>
<path d="M43.3785 74.9028L43.9784 73.3351H47.9995L48.5991 74.9028H43.3785ZM41.3916 76.3634L45.0246 68.8461H47.3175L50.9623 76.3634H48.5402L45.6948 69.8878H46.612L43.7667 76.3634H41.3916Z" fill="#E76825"/>
<path d="M54.513 76.5137C53.8387 76.5137 53.1901 76.4366 52.5669 76.2828C51.9439 76.1289 51.4362 75.9302 51.0444 75.6868L51.8087 74.1189C52.1769 74.3338 52.6023 74.5109 53.0843 74.6506C53.5664 74.7901 54.0465 74.8599 54.5246 74.8599C54.8459 74.8599 55.1047 74.8331 55.3006 74.7794C55.4964 74.7258 55.6398 74.6542 55.7298 74.5646C55.8198 74.4751 55.865 74.3695 55.865 74.2477C55.865 74.0761 55.7788 73.94 55.6064 73.8397C55.4339 73.7396 55.2106 73.6572 54.9362 73.5927C54.6618 73.5284 54.3582 73.4639 54.025 73.3994C53.6918 73.335 53.3587 73.2528 53.0255 73.1524C52.6924 73.0523 52.3886 72.9215 52.1144 72.7605C51.84 72.5993 51.6164 72.3883 51.4441 72.127C51.2718 71.8657 51.1855 71.5346 51.1855 71.1335C51.1855 70.6824 51.3207 70.2744 51.5912 69.9094C51.8616 69.5442 52.2671 69.2508 52.808 69.0287C53.3489 68.807 54.0229 68.6959 54.8303 68.6959C55.3712 68.6959 55.9021 68.7514 56.4236 68.8622C56.9447 68.9733 57.4092 69.1362 57.8169 69.3509L57.0997 70.9294C56.7076 70.7363 56.3197 70.5913 55.9356 70.4946C55.5514 70.3979 55.1791 70.3496 54.8186 70.3496C54.4971 70.3496 54.2384 70.3802 54.0427 70.4409C53.8465 70.5018 53.7054 70.5823 53.6193 70.6824C53.5329 70.7829 53.4899 70.8973 53.4899 71.0261C53.4899 71.1909 53.5741 71.3215 53.7427 71.4181C53.9112 71.5148 54.1346 71.5938 54.413 71.6543C54.6911 71.7152 54.9968 71.7778 55.3301 71.8423C55.6631 71.9068 55.9963 71.9873 56.3294 72.084C56.6626 72.1807 56.9662 72.3095 57.2408 72.4705C57.515 72.6315 57.7363 72.8429 57.905 73.1042C58.0734 73.3655 58.1578 73.693 58.1578 74.0867C58.1578 74.5235 58.0226 74.9262 57.7521 75.2948C57.4819 75.6636 57.0779 75.9589 56.5411 76.1808C56.0042 76.4026 55.3281 76.5137 54.513 76.5137Z" fill="#E76825"/>
<path d="M64.7303 68.8461H67.0583V76.3633H64.7303V68.8461ZM64.8947 73.4317H61.3909V71.6704H64.8947V73.4317ZM61.5555 76.3633H59.2275V68.8461H61.5555V76.3633Z" fill="#E76825"/>
<path d="M68.7041 68.8461H71.0321V76.3633H68.7041V68.8461Z" fill="#E76825"/>
<path d="M78.2165 76.3633L75.5358 73.2598L77.0524 71.7778L80.9208 76.3633H78.2165ZM74.7715 74.6989L74.6421 72.3148L78.1813 68.8461H80.7443L77.217 72.3363L75.9237 73.5712L74.7715 74.6989ZM72.6904 68.8461H74.9951V76.3633H72.6904V68.8461Z" fill="#E76825"/>
</g>
</g>
<defs>
<clipPath id="clip0_74_587">
<rect width="113" height="83" fill="white"/>
</clipPath>
</defs>
</svg>
