<svg width="449" height="172" viewBox="0 0 449 172" fill="none" xmlns="http://www.w3.org/2000/svg">
<path d="M169.64 156.744H172.695L179.576 165.186V158.695C179.576 158.003 179.499 157.571 179.344 157.4C179.139 157.167 178.815 157.051 178.372 157.051H177.982V156.744H181.9V157.051H181.502C181.026 157.051 180.688 157.195 180.489 157.483C180.367 157.66 180.307 158.064 180.307 158.695V168.183H180.008L172.587 159.118V166.049C172.587 166.741 172.662 167.173 172.811 167.344C173.021 167.577 173.345 167.693 173.782 167.693H174.181V168H170.263V167.693H170.653C171.134 167.693 171.475 167.549 171.674 167.261C171.795 167.084 171.856 166.68 171.856 166.049V158.222C171.53 157.84 171.281 157.588 171.109 157.466C170.943 157.345 170.697 157.231 170.371 157.126C170.21 157.076 169.967 157.051 169.64 157.051V156.744ZM188.349 166.904C187.568 167.507 187.079 167.856 186.879 167.95C186.581 168.089 186.262 168.158 185.925 168.158C185.399 168.158 184.965 167.978 184.622 167.618C184.284 167.258 184.115 166.785 184.115 166.199C184.115 165.828 184.198 165.507 184.364 165.236C184.591 164.86 184.984 164.505 185.543 164.173C186.107 163.841 187.043 163.437 188.349 162.961V162.663C188.349 161.904 188.227 161.384 187.983 161.102C187.745 160.82 187.397 160.679 186.938 160.679C186.589 160.679 186.312 160.773 186.107 160.961C185.897 161.149 185.792 161.365 185.792 161.608L185.809 162.09C185.809 162.344 185.742 162.541 185.609 162.679C185.482 162.818 185.313 162.887 185.103 162.887C184.898 162.887 184.73 162.815 184.597 162.671C184.469 162.527 184.406 162.331 184.406 162.082C184.406 161.606 184.649 161.168 185.136 160.77C185.623 160.372 186.307 160.172 187.187 160.172C187.862 160.172 188.415 160.286 188.847 160.513C189.173 160.684 189.414 160.953 189.569 161.318C189.669 161.556 189.718 162.043 189.718 162.779V165.36C189.718 166.085 189.732 166.531 189.76 166.697C189.787 166.857 189.832 166.965 189.893 167.021C189.959 167.076 190.034 167.104 190.117 167.104C190.205 167.104 190.283 167.084 190.349 167.045C190.465 166.973 190.689 166.771 191.022 166.439V166.904C190.402 167.734 189.81 168.149 189.245 168.149C188.974 168.149 188.758 168.055 188.598 167.867C188.437 167.679 188.354 167.358 188.349 166.904ZM188.349 166.365V163.468C187.513 163.8 186.974 164.035 186.73 164.173C186.293 164.417 185.98 164.671 185.792 164.937C185.604 165.203 185.51 165.493 185.51 165.809C185.51 166.207 185.629 166.539 185.867 166.805C186.105 167.065 186.379 167.195 186.689 167.195C187.109 167.195 187.662 166.918 188.349 166.365ZM192.564 160.396H196.142V160.704H195.909C195.694 160.704 195.528 160.756 195.411 160.861C195.301 160.966 195.245 161.108 195.245 161.285C195.245 161.478 195.303 161.708 195.42 161.974L197.188 166.174L198.964 161.816C199.091 161.506 199.155 161.271 199.155 161.11C199.155 161.033 199.133 160.969 199.089 160.919C199.028 160.836 198.95 160.781 198.856 160.753C198.762 160.72 198.571 160.704 198.283 160.704V160.396H200.765V160.704C200.478 160.726 200.278 160.784 200.168 160.878C199.974 161.044 199.8 161.321 199.645 161.708L196.947 168.232H196.607L193.892 161.816C193.771 161.517 193.654 161.304 193.544 161.177C193.433 161.044 193.292 160.933 193.12 160.845C193.026 160.795 192.841 160.748 192.564 160.704V160.396ZM204.748 156.196C204.981 156.196 205.177 156.279 205.338 156.445C205.504 156.606 205.587 156.802 205.587 157.035C205.587 157.267 205.504 157.466 205.338 157.632C205.177 157.798 204.981 157.881 204.748 157.881C204.516 157.881 204.317 157.798 204.151 157.632C203.985 157.466 203.902 157.267 203.902 157.035C203.902 156.802 203.982 156.606 204.142 156.445C204.308 156.279 204.51 156.196 204.748 156.196ZM205.437 160.172V166.282C205.437 166.758 205.471 167.076 205.537 167.236C205.609 167.391 205.711 167.507 205.844 167.585C205.982 167.662 206.231 167.701 206.591 167.701V168H202.897V167.701C203.268 167.701 203.517 167.665 203.644 167.593C203.772 167.521 203.871 167.402 203.943 167.236C204.021 167.07 204.059 166.752 204.059 166.282V163.352C204.059 162.527 204.035 161.993 203.985 161.75C203.946 161.572 203.885 161.451 203.802 161.384C203.719 161.312 203.606 161.276 203.462 161.276C203.307 161.276 203.119 161.318 202.897 161.401L202.781 161.102L205.072 160.172H205.437ZM210.939 165.228C210.475 165.001 210.118 164.685 209.869 164.281C209.62 163.872 209.495 163.421 209.495 162.928C209.495 162.176 209.777 161.528 210.342 160.986C210.912 160.444 211.639 160.172 212.525 160.172C213.25 160.172 213.878 160.349 214.409 160.704H216.02C216.257 160.704 216.396 160.712 216.435 160.729C216.473 160.74 216.501 160.762 216.518 160.795C216.551 160.845 216.567 160.933 216.567 161.061C216.567 161.204 216.554 161.304 216.526 161.359C216.509 161.387 216.479 161.409 216.435 161.426C216.396 161.442 216.257 161.451 216.02 161.451H215.032C215.342 161.849 215.497 162.358 215.497 162.978C215.497 163.686 215.225 164.292 214.683 164.796C214.141 165.299 213.413 165.551 212.5 165.551C212.124 165.551 211.739 165.496 211.346 165.385C211.103 165.596 210.937 165.781 210.848 165.941C210.765 166.096 210.724 166.229 210.724 166.34C210.724 166.434 210.768 166.525 210.856 166.614C210.95 166.702 211.13 166.766 211.396 166.805C211.551 166.827 211.938 166.846 212.558 166.863C213.698 166.89 214.437 166.929 214.774 166.979C215.289 167.051 215.699 167.242 216.003 167.552C216.313 167.862 216.468 168.243 216.468 168.697C216.468 169.323 216.174 169.909 215.588 170.457C214.725 171.265 213.598 171.669 212.209 171.669C211.141 171.669 210.239 171.428 209.503 170.947C209.088 170.67 208.881 170.382 208.881 170.083C208.881 169.951 208.911 169.818 208.972 169.685C209.066 169.48 209.26 169.195 209.553 168.83C209.592 168.78 209.874 168.481 210.4 167.934C210.112 167.762 209.907 167.61 209.786 167.477C209.669 167.339 209.611 167.184 209.611 167.012C209.611 166.819 209.689 166.592 209.844 166.332C210.004 166.071 210.369 165.703 210.939 165.228ZM212.384 160.571C211.974 160.571 211.631 160.734 211.354 161.061C211.078 161.387 210.939 161.888 210.939 162.563C210.939 163.437 211.128 164.115 211.504 164.597C211.792 164.962 212.157 165.145 212.6 165.145C213.02 165.145 213.366 164.987 213.637 164.671C213.908 164.356 214.044 163.861 214.044 163.186C214.044 162.306 213.853 161.617 213.471 161.119C213.189 160.753 212.826 160.571 212.384 160.571ZM210.856 168C210.596 168.282 210.4 168.545 210.267 168.789C210.134 169.032 210.068 169.256 210.068 169.461C210.068 169.727 210.228 169.959 210.549 170.158C211.103 170.501 211.902 170.673 212.948 170.673C213.944 170.673 214.678 170.496 215.148 170.142C215.624 169.793 215.862 169.419 215.862 169.021C215.862 168.733 215.721 168.528 215.438 168.407C215.151 168.285 214.581 168.213 213.728 168.191C212.483 168.158 211.526 168.094 210.856 168ZM223.074 166.904C222.294 167.507 221.804 167.856 221.605 167.95C221.306 168.089 220.988 168.158 220.65 168.158C220.124 168.158 219.69 167.978 219.347 167.618C219.009 167.258 218.84 166.785 218.84 166.199C218.84 165.828 218.923 165.507 219.089 165.236C219.316 164.86 219.709 164.505 220.268 164.173C220.833 163.841 221.768 163.437 223.074 162.961V162.663C223.074 161.904 222.952 161.384 222.709 161.102C222.471 160.82 222.122 160.679 221.663 160.679C221.314 160.679 221.037 160.773 220.833 160.961C220.622 161.149 220.517 161.365 220.517 161.608L220.534 162.09C220.534 162.344 220.467 162.541 220.335 162.679C220.207 162.818 220.039 162.887 219.828 162.887C219.623 162.887 219.455 162.815 219.322 162.671C219.195 162.527 219.131 162.331 219.131 162.082C219.131 161.606 219.374 161.168 219.861 160.77C220.348 160.372 221.032 160.172 221.912 160.172C222.587 160.172 223.14 160.286 223.572 160.513C223.898 160.684 224.139 160.953 224.294 161.318C224.394 161.556 224.443 162.043 224.443 162.779V165.36C224.443 166.085 224.457 166.531 224.485 166.697C224.513 166.857 224.557 166.965 224.618 167.021C224.684 167.076 224.759 167.104 224.842 167.104C224.93 167.104 225.008 167.084 225.074 167.045C225.191 166.973 225.415 166.771 225.747 166.439V166.904C225.127 167.734 224.535 168.149 223.97 168.149C223.699 168.149 223.483 168.055 223.323 167.867C223.162 167.679 223.079 167.358 223.074 166.904ZM223.074 166.365V163.468C222.238 163.8 221.699 164.035 221.455 164.173C221.018 164.417 220.705 164.671 220.517 164.937C220.329 165.203 220.235 165.493 220.235 165.809C220.235 166.207 220.354 166.539 220.592 166.805C220.83 167.065 221.104 167.195 221.414 167.195C221.834 167.195 222.388 166.918 223.074 166.365ZM229.887 157.898V160.396H231.664V160.978H229.887V165.908C229.887 166.401 229.957 166.733 230.095 166.904C230.239 167.076 230.421 167.162 230.643 167.162C230.825 167.162 231.003 167.106 231.174 166.996C231.346 166.879 231.478 166.711 231.573 166.489H231.896C231.703 167.032 231.429 167.441 231.074 167.718C230.72 167.989 230.355 168.125 229.979 168.125C229.724 168.125 229.475 168.055 229.232 167.917C228.988 167.773 228.808 167.571 228.692 167.311C228.576 167.045 228.518 166.639 228.518 166.091V160.978H227.314V160.704C227.619 160.582 227.928 160.377 228.244 160.089C228.565 159.796 228.85 159.45 229.099 159.052C229.226 158.841 229.403 158.457 229.63 157.898H229.887ZM235.049 163.26C235.044 164.389 235.318 165.275 235.871 165.917C236.424 166.558 237.075 166.879 237.822 166.879C238.32 166.879 238.751 166.744 239.117 166.473C239.487 166.196 239.797 165.726 240.046 165.062L240.304 165.228C240.187 165.986 239.85 166.677 239.291 167.303C238.732 167.923 238.032 168.232 237.191 168.232C236.278 168.232 235.495 167.878 234.842 167.17C234.194 166.456 233.87 165.499 233.87 164.298C233.87 162.997 234.203 161.985 234.867 161.26C235.536 160.529 236.375 160.164 237.382 160.164C238.234 160.164 238.934 160.446 239.482 161.011C240.03 161.57 240.304 162.319 240.304 163.26H235.049ZM235.049 162.779H238.569C238.541 162.292 238.483 161.949 238.394 161.75C238.256 161.44 238.049 161.196 237.772 161.019C237.501 160.842 237.216 160.753 236.917 160.753C236.458 160.753 236.045 160.933 235.68 161.293C235.32 161.647 235.11 162.142 235.049 162.779ZM255.616 162.256C256.396 162.422 256.98 162.688 257.367 163.053C257.904 163.562 258.173 164.184 258.173 164.92C258.173 165.479 257.995 166.016 257.641 166.531C257.287 167.04 256.8 167.413 256.18 167.651C255.566 167.884 254.625 168 253.358 168H248.046V167.693H248.469C248.939 167.693 249.277 167.543 249.482 167.245C249.609 167.051 249.673 166.639 249.673 166.008V158.736C249.673 158.039 249.592 157.599 249.432 157.417C249.216 157.173 248.895 157.051 248.469 157.051H248.046V156.744H252.91C253.817 156.744 254.545 156.811 255.093 156.943C255.923 157.143 256.557 157.497 256.994 158.006C257.431 158.509 257.65 159.09 257.65 159.749C257.65 160.313 257.478 160.82 257.135 161.268C256.792 161.711 256.285 162.04 255.616 162.256ZM251.266 161.808C251.471 161.846 251.703 161.877 251.964 161.899C252.229 161.916 252.52 161.924 252.835 161.924C253.643 161.924 254.249 161.838 254.653 161.667C255.062 161.489 255.375 161.221 255.591 160.861C255.807 160.502 255.915 160.109 255.915 159.683C255.915 159.024 255.646 158.462 255.11 157.998C254.573 157.533 253.79 157.3 252.76 157.3C252.207 157.3 251.709 157.361 251.266 157.483V161.808ZM251.266 167.187C251.908 167.336 252.542 167.411 253.167 167.411C254.169 167.411 254.932 167.187 255.458 166.738C255.984 166.285 256.247 165.726 256.247 165.062C256.247 164.624 256.128 164.204 255.89 163.8C255.652 163.396 255.264 163.078 254.728 162.845C254.191 162.613 253.527 162.497 252.736 162.497C252.392 162.497 252.099 162.502 251.856 162.513C251.612 162.524 251.416 162.544 251.266 162.571V167.187ZM264.712 160.172C265.863 160.172 266.787 160.61 267.485 161.484C268.077 162.231 268.373 163.089 268.373 164.057C268.373 164.738 268.21 165.427 267.883 166.124C267.557 166.821 267.106 167.347 266.53 167.701C265.96 168.055 265.324 168.232 264.621 168.232C263.475 168.232 262.565 167.776 261.89 166.863C261.32 166.094 261.035 165.23 261.035 164.273C261.035 163.576 261.207 162.884 261.55 162.198C261.898 161.506 262.355 160.997 262.919 160.67C263.484 160.338 264.081 160.172 264.712 160.172ZM264.455 160.712C264.162 160.712 263.866 160.8 263.567 160.978C263.273 161.149 263.035 161.453 262.853 161.891C262.67 162.328 262.579 162.889 262.579 163.576C262.579 164.682 262.798 165.637 263.235 166.439C263.677 167.242 264.258 167.643 264.978 167.643C265.515 167.643 265.957 167.422 266.306 166.979C266.655 166.536 266.829 165.775 266.829 164.696C266.829 163.346 266.538 162.284 265.957 161.509C265.564 160.978 265.064 160.712 264.455 160.712ZM273.468 156.196V166.282C273.468 166.758 273.501 167.073 273.568 167.228C273.64 167.383 273.748 167.502 273.892 167.585C274.035 167.662 274.304 167.701 274.697 167.701V168H270.97V167.701C271.318 167.701 271.556 167.665 271.684 167.593C271.811 167.521 271.91 167.402 271.982 167.236C272.054 167.07 272.09 166.752 272.09 166.282V159.375C272.09 158.518 272.071 157.992 272.032 157.798C271.993 157.599 271.93 157.464 271.841 157.392C271.758 157.32 271.65 157.284 271.518 157.284C271.374 157.284 271.191 157.328 270.97 157.417L270.829 157.126L273.095 156.196H273.468ZM282.316 167.145C281.945 167.532 281.582 167.812 281.228 167.983C280.874 168.149 280.492 168.232 280.083 168.232C279.253 168.232 278.528 167.887 277.908 167.195C277.288 166.498 276.978 165.604 276.978 164.514C276.978 163.424 277.321 162.427 278.007 161.525C278.694 160.618 279.576 160.164 280.655 160.164C281.325 160.164 281.878 160.377 282.316 160.803V159.4C282.316 158.532 282.293 157.998 282.249 157.798C282.21 157.599 282.147 157.464 282.058 157.392C281.97 157.32 281.859 157.284 281.726 157.284C281.582 157.284 281.391 157.328 281.153 157.417L281.046 157.126L283.312 156.196H283.685V164.987C283.685 165.878 283.705 166.423 283.743 166.622C283.788 166.816 283.854 166.951 283.942 167.029C284.037 167.106 284.144 167.145 284.266 167.145C284.416 167.145 284.615 167.098 284.864 167.004L284.955 167.294L282.697 168.232H282.316V167.145ZM282.316 166.564V162.646C282.282 162.27 282.183 161.927 282.017 161.617C281.851 161.307 281.629 161.074 281.353 160.919C281.081 160.759 280.816 160.679 280.556 160.679C280.069 160.679 279.634 160.897 279.253 161.334C278.749 161.91 278.497 162.751 278.497 163.858C278.497 164.976 278.741 165.833 279.228 166.431C279.715 167.023 280.257 167.319 280.855 167.319C281.358 167.319 281.845 167.068 282.316 166.564ZM289.42 156.196V166.282C289.42 166.758 289.453 167.073 289.519 167.228C289.591 167.383 289.699 167.502 289.843 167.585C289.987 167.662 290.255 167.701 290.648 167.701V168H286.921V167.701C287.27 167.701 287.508 167.665 287.635 167.593C287.762 167.521 287.862 167.402 287.934 167.236C288.006 167.07 288.042 166.752 288.042 166.282V159.375C288.042 158.518 288.022 157.992 287.984 157.798C287.945 157.599 287.881 157.464 287.793 157.392C287.71 157.32 287.602 157.284 287.469 157.284C287.325 157.284 287.142 157.328 286.921 157.417L286.78 157.126L289.046 156.196H289.42ZM292.465 160.396H296.009V160.704H295.835C295.586 160.704 295.398 160.759 295.27 160.87C295.149 160.975 295.088 161.108 295.088 161.268C295.088 161.484 295.179 161.783 295.362 162.165L297.213 166L298.914 161.799C299.009 161.572 299.056 161.348 299.056 161.127C299.056 161.027 299.036 160.953 298.997 160.903C298.953 160.842 298.884 160.795 298.79 160.762C298.696 160.723 298.53 160.704 298.292 160.704V160.396H300.766V160.704C300.561 160.726 300.403 160.77 300.292 160.836C300.182 160.903 300.06 161.027 299.927 161.21C299.877 161.287 299.783 161.5 299.645 161.849L296.549 169.436C296.25 170.172 295.857 170.728 295.37 171.104C294.889 171.481 294.424 171.669 293.975 171.669C293.649 171.669 293.381 171.575 293.17 171.387C292.96 171.199 292.855 170.983 292.855 170.739C292.855 170.507 292.93 170.319 293.079 170.175C293.234 170.036 293.444 169.967 293.71 169.967C293.892 169.967 294.141 170.028 294.457 170.15C294.678 170.233 294.817 170.274 294.872 170.274C295.038 170.274 295.218 170.189 295.411 170.017C295.611 169.846 295.81 169.514 296.009 169.021L296.549 167.701L293.818 161.965C293.735 161.794 293.602 161.581 293.419 161.326C293.281 161.132 293.168 161.002 293.079 160.936C292.952 160.847 292.747 160.77 292.465 160.704V160.396ZM302.026 170.831V170.465C302.596 170.277 303.036 169.984 303.346 169.585C303.661 169.193 303.819 168.775 303.819 168.332C303.819 168.227 303.794 168.138 303.744 168.066C303.705 168.017 303.667 167.992 303.628 167.992C303.567 167.992 303.434 168.047 303.229 168.158C303.13 168.208 303.025 168.232 302.914 168.232C302.643 168.232 302.427 168.152 302.267 167.992C302.106 167.831 302.026 167.61 302.026 167.328C302.026 167.056 302.128 166.824 302.333 166.63C302.543 166.437 302.798 166.34 303.097 166.34C303.462 166.34 303.786 166.5 304.068 166.821C304.356 167.137 304.5 167.557 304.5 168.083C304.5 168.653 304.3 169.181 303.902 169.668C303.509 170.161 302.884 170.548 302.026 170.831ZM320.185 162.256C320.966 162.422 321.549 162.688 321.937 163.053C322.474 163.562 322.742 164.184 322.742 164.92C322.742 165.479 322.565 166.016 322.211 166.531C321.857 167.04 321.37 167.413 320.75 167.651C320.136 167.884 319.195 168 317.928 168H312.615V167.693H313.038C313.509 167.693 313.846 167.543 314.051 167.245C314.178 167.051 314.242 166.639 314.242 166.008V158.736C314.242 158.039 314.162 157.599 314.001 157.417C313.785 157.173 313.464 157.051 313.038 157.051H312.615V156.744H317.479C318.387 156.744 319.115 156.811 319.662 156.943C320.492 157.143 321.126 157.497 321.563 158.006C322 158.509 322.219 159.09 322.219 159.749C322.219 160.313 322.047 160.82 321.704 161.268C321.361 161.711 320.855 162.04 320.185 162.256ZM315.836 161.808C316.04 161.846 316.273 161.877 316.533 161.899C316.799 161.916 317.089 161.924 317.405 161.924C318.213 161.924 318.818 161.838 319.222 161.667C319.632 161.489 319.945 161.221 320.16 160.861C320.376 160.502 320.484 160.109 320.484 159.683C320.484 159.024 320.216 158.462 319.679 157.998C319.142 157.533 318.359 157.3 317.33 157.3C316.776 157.3 316.278 157.361 315.836 157.483V161.808ZM315.836 167.187C316.478 167.336 317.111 167.411 317.737 167.411C318.738 167.411 319.502 167.187 320.028 166.738C320.553 166.285 320.816 165.726 320.816 165.062C320.816 164.624 320.697 164.204 320.459 163.8C320.221 163.396 319.834 163.078 319.297 162.845C318.76 162.613 318.096 162.497 317.305 162.497C316.962 162.497 316.669 162.502 316.425 162.513C316.182 162.524 315.985 162.544 315.836 162.571V167.187ZM326.841 163.26C326.836 164.389 327.11 165.275 327.663 165.917C328.216 166.558 328.867 166.879 329.614 166.879C330.112 166.879 330.543 166.744 330.909 166.473C331.279 166.196 331.589 165.726 331.838 165.062L332.096 165.228C331.979 165.986 331.642 166.677 331.083 167.303C330.524 167.923 329.824 168.232 328.983 168.232C328.07 168.232 327.287 167.878 326.634 167.17C325.986 166.456 325.663 165.499 325.663 164.298C325.663 162.997 325.995 161.985 326.659 161.26C327.328 160.529 328.167 160.164 329.174 160.164C330.026 160.164 330.726 160.446 331.274 161.011C331.822 161.57 332.096 162.319 332.096 163.26H326.841ZM326.841 162.779H330.361C330.333 162.292 330.275 161.949 330.186 161.75C330.048 161.44 329.841 161.196 329.564 161.019C329.293 160.842 329.008 160.753 328.709 160.753C328.25 160.753 327.837 160.933 327.472 161.293C327.112 161.647 326.902 162.142 326.841 162.779ZM349.3 164.887L349.574 164.945L348.612 168H339.896V167.693H340.319C340.795 167.693 341.135 167.538 341.34 167.228C341.456 167.051 341.514 166.641 341.514 166V158.736C341.514 158.034 341.437 157.594 341.282 157.417C341.066 157.173 340.745 157.051 340.319 157.051H339.896V156.744H344.992V157.051C344.395 157.046 343.974 157.101 343.731 157.217C343.493 157.333 343.329 157.48 343.241 157.657C343.152 157.834 343.108 158.258 343.108 158.927V166C343.108 166.459 343.152 166.774 343.241 166.946C343.307 167.062 343.41 167.148 343.548 167.203C343.686 167.258 344.118 167.286 344.843 167.286H345.665C346.528 167.286 347.134 167.222 347.483 167.095C347.831 166.968 348.149 166.744 348.437 166.423C348.725 166.096 349.013 165.584 349.3 164.887ZM353.773 156.196C354.006 156.196 354.202 156.279 354.363 156.445C354.529 156.606 354.612 156.802 354.612 157.035C354.612 157.267 354.529 157.466 354.363 157.632C354.202 157.798 354.006 157.881 353.773 157.881C353.541 157.881 353.342 157.798 353.176 157.632C353.01 157.466 352.927 157.267 352.927 157.035C352.927 156.802 353.007 156.606 353.167 156.445C353.333 156.279 353.535 156.196 353.773 156.196ZM354.462 160.172V166.282C354.462 166.758 354.495 167.076 354.562 167.236C354.634 167.391 354.736 167.507 354.869 167.585C355.007 167.662 355.256 167.701 355.616 167.701V168H351.922V167.701C352.293 167.701 352.542 167.665 352.669 167.593C352.797 167.521 352.896 167.402 352.968 167.236C353.046 167.07 353.084 166.752 353.084 166.282V163.352C353.084 162.527 353.059 161.993 353.01 161.75C352.971 161.572 352.91 161.451 352.827 161.384C352.744 161.312 352.631 161.276 352.487 161.276C352.332 161.276 352.144 161.318 351.922 161.401L351.806 161.102L354.097 160.172H354.462ZM360.902 160.994V165.991C360.902 166.7 360.98 167.148 361.135 167.336C361.34 167.579 361.613 167.701 361.957 167.701H362.645V168H358.105V167.701H358.445C358.667 167.701 358.869 167.646 359.051 167.535C359.234 167.424 359.358 167.275 359.425 167.087C359.497 166.899 359.533 166.534 359.533 165.991V160.994H358.055V160.396H359.533V159.898C359.533 159.14 359.654 158.498 359.898 157.973C360.141 157.447 360.512 157.024 361.01 156.703C361.514 156.376 362.078 156.213 362.704 156.213C363.285 156.213 363.819 156.401 364.306 156.777C364.627 157.026 364.787 157.306 364.787 157.616C364.787 157.782 364.715 157.939 364.571 158.089C364.427 158.233 364.272 158.305 364.106 158.305C363.979 158.305 363.844 158.26 363.7 158.172C363.561 158.078 363.39 157.881 363.185 157.583C362.98 157.278 362.792 157.073 362.621 156.968C362.449 156.863 362.258 156.811 362.048 156.811C361.793 156.811 361.577 156.88 361.4 157.018C361.223 157.151 361.096 157.361 361.019 157.649C360.941 157.931 360.902 158.664 360.902 159.849V160.396H362.861V160.994H360.902ZM366.23 163.26C366.225 164.389 366.498 165.275 367.052 165.917C367.605 166.558 368.255 166.879 369.003 166.879C369.501 166.879 369.932 166.744 370.297 166.473C370.668 166.196 370.978 165.726 371.227 165.062L371.484 165.228C371.368 165.986 371.031 166.677 370.472 167.303C369.913 167.923 369.213 168.232 368.372 168.232C367.459 168.232 366.676 167.878 366.023 167.17C365.375 166.456 365.051 165.499 365.051 164.298C365.051 162.997 365.383 161.985 366.047 161.26C366.717 160.529 367.555 160.164 368.563 160.164C369.415 160.164 370.115 160.446 370.663 161.011C371.211 161.57 371.484 162.319 371.484 163.26H366.23ZM366.23 162.779H369.75C369.722 162.292 369.664 161.949 369.575 161.75C369.437 161.44 369.229 161.196 368.953 161.019C368.682 160.842 368.397 160.753 368.098 160.753C367.638 160.753 367.226 160.933 366.861 161.293C366.501 161.647 366.291 162.142 366.23 162.779ZM374.646 161.334L374.198 158.877C374.07 158.197 374.007 157.737 374.007 157.5C374.007 157.145 374.079 156.888 374.222 156.728C374.366 156.567 374.563 156.487 374.812 156.487C375.061 156.487 375.266 156.57 375.426 156.736C375.592 156.896 375.675 157.109 375.675 157.375C375.675 157.58 375.603 158.083 375.459 158.886L375.011 161.334H374.646ZM383.211 160.172V162.762H382.937C382.727 161.949 382.455 161.395 382.123 161.102C381.797 160.809 381.379 160.662 380.87 160.662C380.483 160.662 380.17 160.764 379.932 160.969C379.694 161.174 379.575 161.401 379.575 161.65C379.575 161.96 379.664 162.225 379.841 162.447C380.012 162.674 380.361 162.914 380.887 163.169L382.099 163.758C383.222 164.306 383.784 165.028 383.784 165.925C383.784 166.617 383.521 167.175 382.995 167.602C382.475 168.022 381.891 168.232 381.244 168.232C380.779 168.232 380.247 168.149 379.65 167.983C379.467 167.928 379.318 167.9 379.202 167.9C379.074 167.9 378.975 167.972 378.903 168.116H378.629V165.402H378.903C379.058 166.177 379.354 166.76 379.791 167.153C380.228 167.546 380.718 167.743 381.26 167.743C381.642 167.743 381.952 167.632 382.19 167.411C382.433 167.184 382.555 166.913 382.555 166.597C382.555 166.215 382.42 165.894 382.148 165.634C381.883 165.374 381.349 165.045 380.546 164.646C379.744 164.248 379.218 163.888 378.969 163.567C378.72 163.252 378.596 162.854 378.596 162.372C378.596 161.747 378.809 161.224 379.235 160.803C379.666 160.383 380.223 160.172 380.903 160.172C381.202 160.172 381.565 160.236 381.991 160.363C382.273 160.446 382.461 160.488 382.555 160.488C382.644 160.488 382.713 160.468 382.763 160.43C382.812 160.391 382.871 160.305 382.937 160.172H383.211ZM398.191 164.231H393.833L393.07 166.008C392.881 166.445 392.787 166.771 392.787 166.987C392.787 167.159 392.868 167.311 393.028 167.444C393.194 167.571 393.548 167.654 394.091 167.693V168H390.546V167.693C391.016 167.61 391.321 167.502 391.459 167.369C391.741 167.104 392.054 166.564 392.397 165.75L396.357 156.487H396.647L400.565 165.85C400.881 166.603 401.166 167.092 401.42 167.319C401.68 167.541 402.04 167.665 402.499 167.693V168H398.058V167.693C398.507 167.671 398.808 167.596 398.963 167.469C399.124 167.341 399.204 167.187 399.204 167.004C399.204 166.76 399.093 166.376 398.872 165.85L398.191 164.231ZM397.959 163.617L396.049 159.068L394.091 163.617H397.959ZM411.048 165.111C410.843 166.113 410.442 166.885 409.844 167.427C409.246 167.964 408.585 168.232 407.86 168.232C406.997 168.232 406.244 167.87 405.602 167.145C404.96 166.42 404.639 165.441 404.639 164.207C404.639 163.011 404.994 162.04 405.702 161.293C406.416 160.546 407.271 160.172 408.267 160.172C409.014 160.172 409.628 160.372 410.11 160.77C410.591 161.163 410.832 161.572 410.832 161.999C410.832 162.209 410.763 162.38 410.624 162.513C410.492 162.64 410.303 162.704 410.06 162.704C409.733 162.704 409.487 162.599 409.321 162.389C409.227 162.272 409.163 162.051 409.13 161.725C409.103 161.398 408.992 161.149 408.798 160.978C408.604 160.812 408.336 160.729 407.993 160.729C407.44 160.729 406.994 160.933 406.657 161.343C406.208 161.885 405.984 162.602 405.984 163.493C405.984 164.4 406.206 165.203 406.648 165.9C407.096 166.592 407.7 166.938 408.458 166.938C409 166.938 409.487 166.752 409.919 166.381C410.223 166.127 410.519 165.665 410.807 164.995L411.048 165.111ZM414.782 163.26C414.776 164.389 415.05 165.275 415.603 165.917C416.157 166.558 416.807 166.879 417.554 166.879C418.052 166.879 418.484 166.744 418.849 166.473C419.22 166.196 419.53 165.726 419.779 165.062L420.036 165.228C419.92 165.986 419.582 166.677 419.023 167.303C418.464 167.923 417.764 168.232 416.923 168.232C416.01 168.232 415.227 167.878 414.574 167.17C413.927 166.456 413.603 165.499 413.603 164.298C413.603 162.997 413.935 161.985 414.599 161.26C415.269 160.529 416.107 160.164 417.114 160.164C417.966 160.164 418.666 160.446 419.214 161.011C419.762 161.57 420.036 162.319 420.036 163.26H414.782ZM414.782 162.779H418.301C418.274 162.292 418.215 161.949 418.127 161.75C417.989 161.44 417.781 161.196 417.504 161.019C417.233 160.842 416.948 160.753 416.649 160.753C416.19 160.753 415.778 160.933 415.413 161.293C415.053 161.647 414.843 162.142 414.782 162.779ZM424.011 166.39C424.271 166.39 424.49 166.481 424.667 166.664C424.844 166.841 424.932 167.056 424.932 167.311C424.932 167.566 424.841 167.784 424.658 167.967C424.481 168.144 424.265 168.232 424.011 168.232C423.756 168.232 423.538 168.144 423.355 167.967C423.178 167.784 423.089 167.566 423.089 167.311C423.089 167.051 423.178 166.832 423.355 166.655C423.538 166.478 423.756 166.39 424.011 166.39Z" fill="url(#paint0_linear_470_800)"/>
<path d="M173.037 139.019C173.012 138.829 173.012 138.626 173.037 138.411C173.633 138.348 174.057 138.291 174.31 138.24C174.564 138.177 174.722 138.05 174.785 137.86C174.849 137.657 174.88 137.334 174.88 136.891V128.056C174.88 127.524 174.849 127.144 174.785 126.916C174.722 126.688 174.557 126.542 174.291 126.479C174.038 126.403 173.62 126.34 173.037 126.289C173.012 126.099 173.012 125.896 173.037 125.681C173.367 125.681 173.652 125.687 173.892 125.7C174.146 125.7 174.399 125.7 174.652 125.7C174.906 125.7 175.21 125.706 175.564 125.719C175.919 125.719 176.369 125.719 176.913 125.719C177.914 125.719 178.851 125.719 179.725 125.719C180.599 125.706 181.328 125.7 181.91 125.7C182.493 125.687 182.835 125.681 182.936 125.681C182.987 126.15 183.044 126.631 183.107 127.125C183.183 127.619 183.266 128.145 183.354 128.702C183.139 128.727 182.93 128.727 182.727 128.702C182.575 128.322 182.398 127.986 182.195 127.695C181.993 127.404 181.784 127.182 181.568 127.03C181.328 126.853 181.036 126.72 180.694 126.631C180.365 126.542 179.953 126.498 179.459 126.498H176.97V131.685H178.015C178.623 131.685 179.086 131.647 179.402 131.571C179.719 131.482 179.953 131.299 180.105 131.02C180.257 130.729 180.378 130.273 180.466 129.652C180.694 129.614 180.91 129.614 181.112 129.652C181.1 130.209 181.087 130.64 181.074 130.944C181.074 131.235 181.074 131.451 181.074 131.59C181.074 131.729 181.074 131.843 181.074 131.932C181.074 132.008 181.074 132.071 181.074 132.122L181.112 134.63C180.922 134.668 180.707 134.668 180.466 134.63C180.39 133.959 180.276 133.477 180.124 133.186C179.972 132.895 179.744 132.711 179.44 132.635C179.149 132.559 178.731 132.521 178.186 132.521H176.97V136.644C176.97 137.075 176.97 137.423 176.97 137.689C176.983 137.942 176.996 138.107 177.008 138.183H179.611C180.245 138.183 180.751 138.132 181.131 138.031C181.524 137.917 181.847 137.752 182.1 137.537C182.278 137.398 182.487 137.157 182.727 136.815C182.968 136.46 183.196 136.055 183.411 135.599C183.614 135.574 183.81 135.574 184 135.599C183.874 136.308 183.766 136.948 183.677 137.518C183.589 138.088 183.513 138.582 183.449 139C182.879 139 182.259 139 181.587 139C180.916 139 180.245 139 179.573 139C178.902 138.987 178.288 138.981 177.73 138.981C177.186 138.981 176.749 138.981 176.419 138.981C175.824 138.981 175.336 138.987 174.956 139C174.589 139 174.26 139 173.968 139C173.69 139.013 173.379 139.019 173.037 139.019ZM191.993 139.133L187.889 128.303C187.724 127.847 187.578 127.492 187.452 127.239C187.338 126.986 187.211 126.796 187.072 126.669C186.932 126.542 186.749 126.46 186.521 126.422C186.305 126.371 186.014 126.327 185.647 126.289C185.609 126.086 185.609 125.884 185.647 125.681C186.09 125.681 186.552 125.687 187.034 125.7C187.528 125.713 188.003 125.719 188.459 125.719C188.737 125.719 189.054 125.719 189.409 125.719C189.776 125.706 190.137 125.7 190.492 125.7C190.859 125.687 191.182 125.681 191.461 125.681C191.499 125.871 191.499 126.074 191.461 126.289C190.789 126.34 190.321 126.403 190.055 126.479C189.789 126.555 189.656 126.707 189.656 126.935C189.656 127.024 189.675 127.138 189.713 127.277C189.763 127.404 189.82 127.556 189.884 127.733L193.133 136.435L196.306 128.075C196.394 127.834 196.464 127.632 196.515 127.467C196.565 127.29 196.591 127.144 196.591 127.03C196.591 126.777 196.458 126.606 196.192 126.517C195.938 126.416 195.457 126.34 194.748 126.289C194.71 126.074 194.71 125.871 194.748 125.681C194.938 125.681 195.216 125.687 195.584 125.7C195.951 125.7 196.318 125.706 196.686 125.719C197.053 125.719 197.332 125.719 197.522 125.719C197.927 125.719 198.288 125.713 198.605 125.7C198.934 125.687 199.295 125.681 199.688 125.681C199.726 125.884 199.726 126.086 199.688 126.289C199.32 126.327 199.016 126.365 198.776 126.403C198.548 126.441 198.351 126.523 198.187 126.65C198.022 126.777 197.864 126.979 197.712 127.258C197.572 127.524 197.408 127.904 197.218 128.398L193.019 138.981C192.867 139.032 192.689 139.07 192.487 139.095C192.297 139.12 192.132 139.133 191.993 139.133ZM201.108 139.019C201.082 138.829 201.082 138.626 201.108 138.411C201.703 138.348 202.127 138.291 202.381 138.24C202.634 138.177 202.792 138.05 202.856 137.86C202.919 137.657 202.951 137.334 202.951 136.891V128.056C202.951 127.524 202.919 127.144 202.856 126.916C202.792 126.688 202.628 126.542 202.362 126.479C202.108 126.403 201.69 126.34 201.108 126.289C201.082 126.099 201.082 125.896 201.108 125.681C201.437 125.681 201.722 125.687 201.963 125.7C202.216 125.7 202.469 125.7 202.723 125.7C202.976 125.7 203.28 125.706 203.635 125.719C203.989 125.719 204.439 125.719 204.984 125.719C205.984 125.719 206.922 125.719 207.796 125.719C208.67 125.706 209.398 125.7 209.981 125.7C210.563 125.687 210.905 125.681 211.007 125.681C211.057 126.15 211.114 126.631 211.178 127.125C211.254 127.619 211.336 128.145 211.425 128.702C211.209 128.727 211 128.727 210.798 128.702C210.646 128.322 210.468 127.986 210.266 127.695C210.063 127.404 209.854 127.182 209.639 127.03C209.398 126.853 209.107 126.72 208.765 126.631C208.435 126.542 208.024 126.498 207.53 126.498H205.041V131.685H206.086C206.694 131.685 207.156 131.647 207.473 131.571C207.789 131.482 208.024 131.299 208.176 131.02C208.328 130.729 208.448 130.273 208.537 129.652C208.765 129.614 208.98 129.614 209.183 129.652C209.17 130.209 209.157 130.64 209.145 130.944C209.145 131.235 209.145 131.451 209.145 131.59C209.145 131.729 209.145 131.843 209.145 131.932C209.145 132.008 209.145 132.071 209.145 132.122L209.183 134.63C208.993 134.668 208.777 134.668 208.537 134.63C208.461 133.959 208.347 133.477 208.195 133.186C208.043 132.895 207.815 132.711 207.511 132.635C207.219 132.559 206.801 132.521 206.257 132.521H205.041V136.644C205.041 137.075 205.041 137.423 205.041 137.689C205.053 137.942 205.066 138.107 205.079 138.183H207.682C208.315 138.183 208.822 138.132 209.202 138.031C209.594 137.917 209.917 137.752 210.171 137.537C210.348 137.398 210.557 137.157 210.798 136.815C211.038 136.46 211.266 136.055 211.482 135.599C211.684 135.574 211.881 135.574 212.071 135.599C211.944 136.308 211.836 136.948 211.748 137.518C211.659 138.088 211.583 138.582 211.52 139C210.95 139 210.329 139 209.658 139C208.986 139 208.315 139 207.644 139C206.972 138.987 206.358 138.981 205.801 138.981C205.256 138.981 204.819 138.981 204.49 138.981C203.894 138.981 203.407 138.987 203.027 139C202.659 139 202.33 139 202.039 139C201.76 139.013 201.45 139.019 201.108 139.019ZM225.953 139.133L217.498 128.037V136.169C217.498 136.65 217.511 137.024 217.536 137.29C217.561 137.543 217.637 137.74 217.764 137.879C217.891 138.006 218.087 138.113 218.353 138.202C218.619 138.291 218.999 138.36 219.493 138.411C219.518 138.614 219.518 138.816 219.493 139.019C219.113 139.019 218.689 139.013 218.22 139C217.764 138.987 217.378 138.981 217.061 138.981C216.744 138.981 216.352 138.987 215.883 139C215.427 139.013 215.015 139.019 214.648 139.019C214.61 138.829 214.61 138.626 214.648 138.411C215.104 138.348 215.459 138.291 215.712 138.24C215.965 138.177 216.149 138.088 216.263 137.974C216.377 137.847 216.447 137.664 216.472 137.423C216.51 137.182 216.529 136.847 216.529 136.416V128.626C216.529 128.119 216.51 127.72 216.472 127.429C216.447 127.138 216.364 126.922 216.225 126.783C216.098 126.631 215.896 126.523 215.617 126.46C215.351 126.384 214.977 126.321 214.496 126.27C214.483 126.08 214.483 125.884 214.496 125.681C214.889 125.681 215.307 125.687 215.75 125.7C216.193 125.713 216.637 125.719 217.08 125.719C217.143 125.719 217.314 125.719 217.593 125.719C217.884 125.719 218.138 125.713 218.353 125.7L226.067 135.846V128.55C226.067 128.069 226.054 127.695 226.029 127.429C226.016 127.163 225.94 126.967 225.801 126.84C225.535 126.561 224.895 126.384 223.882 126.308C223.844 126.093 223.844 125.89 223.882 125.7C224.123 125.7 224.408 125.706 224.737 125.719C225.079 125.719 225.408 125.725 225.725 125.738C226.042 125.738 226.301 125.738 226.504 125.738C226.821 125.738 227.213 125.732 227.682 125.719C228.151 125.706 228.569 125.7 228.936 125.7C228.961 125.89 228.961 126.086 228.936 126.289C228.328 126.365 227.891 126.454 227.625 126.555C227.359 126.644 227.194 126.815 227.131 127.068C227.068 127.321 227.036 127.733 227.036 128.303V139.038C226.909 139.063 226.738 139.082 226.523 139.095C226.308 139.12 226.118 139.133 225.953 139.133ZM234.217 139.019C234.192 138.829 234.192 138.626 234.217 138.411C234.851 138.348 235.3 138.291 235.566 138.24C235.832 138.177 235.997 138.05 236.06 137.86C236.124 137.67 236.155 137.347 236.155 136.891V126.517H234.787C234.116 126.517 233.584 126.612 233.191 126.802C232.811 126.979 232.501 127.252 232.26 127.619C232.032 127.986 231.804 128.455 231.576 129.025C231.374 129.05 231.171 129.05 230.968 129.025C231.044 128.417 231.114 127.834 231.177 127.277C231.253 126.72 231.317 126.181 231.367 125.662C232.191 125.713 233.103 125.744 234.103 125.757C235.104 125.757 236.143 125.757 237.219 125.757C238.309 125.757 239.354 125.757 240.354 125.757C241.368 125.744 242.28 125.713 243.09 125.662C243.141 126.169 243.192 126.707 243.242 127.277C243.293 127.834 243.356 128.417 243.432 129.025C243.217 129.05 243.008 129.05 242.805 129.025C242.565 128.442 242.324 127.967 242.083 127.6C241.843 127.233 241.532 126.96 241.152 126.783C240.785 126.606 240.266 126.517 239.594 126.517H238.245V136.644C238.245 137.037 238.258 137.347 238.283 137.575C238.309 137.803 238.378 137.968 238.492 138.069C238.619 138.17 238.815 138.246 239.081 138.297C239.347 138.335 239.715 138.373 240.183 138.411C240.221 138.614 240.221 138.816 240.183 139.019C239.917 139.019 239.594 139.013 239.214 139C238.847 139 238.48 139 238.112 139C237.745 138.987 237.435 138.981 237.181 138.981C236.941 138.981 236.637 138.987 236.269 139C235.915 139 235.547 139 235.167 139C234.8 139.013 234.483 139.019 234.217 139.019ZM259.749 136.112L263.815 125.7C264.081 125.713 264.36 125.719 264.651 125.719C264.942 125.719 265.189 125.719 265.392 125.719C265.493 125.719 265.677 125.719 265.943 125.719C266.222 125.706 266.519 125.7 266.836 125.7C267.165 125.7 267.463 125.7 267.729 125.7C268.008 125.687 268.198 125.681 268.299 125.681C268.337 125.871 268.337 126.067 268.299 126.27H268.261C267.678 126.333 267.254 126.397 266.988 126.46C266.722 126.511 266.557 126.637 266.494 126.84C266.443 127.03 266.418 127.347 266.418 127.79L266.57 136.663C266.57 137.056 266.583 137.366 266.608 137.594C266.633 137.822 266.703 137.987 266.817 138.088C266.931 138.189 267.115 138.265 267.368 138.316C267.621 138.354 267.982 138.392 268.451 138.43C268.489 138.62 268.489 138.816 268.451 139.019C268.35 139.019 268.16 139.013 267.881 139C267.615 139 267.317 139 266.988 139C266.671 139 266.374 139 266.095 139C265.829 138.987 265.645 138.981 265.544 138.981C265.443 138.981 265.259 138.987 264.993 139C264.727 139 264.436 139 264.119 139C263.802 139 263.511 139 263.245 139C262.979 139.013 262.795 139.019 262.694 139.019C262.681 138.829 262.681 138.633 262.694 138.43H262.732C263.289 138.367 263.695 138.31 263.948 138.259C264.201 138.196 264.353 138.069 264.404 137.879C264.467 137.676 264.499 137.353 264.499 136.91L264.328 126.726L259.54 138.981C259.451 139.019 259.312 139.044 259.122 139.057C258.932 139.07 258.767 139.076 258.628 139.076L254.125 127.125L253.821 136.91C253.808 137.328 253.827 137.632 253.878 137.822C253.929 137.999 254.081 138.126 254.334 138.202C254.587 138.278 255.012 138.354 255.607 138.43C255.658 138.633 255.658 138.829 255.607 139.019C255.48 139.019 255.259 139.013 254.942 139C254.638 139 254.328 139 254.011 139C253.707 138.987 253.485 138.981 253.346 138.981C253.27 138.981 253.118 138.987 252.89 139C252.675 139 252.434 139 252.168 139C251.902 139 251.655 139 251.427 139C251.212 139.013 251.066 139.019 250.99 139.019C250.965 138.816 250.965 138.62 250.99 138.43C251.585 138.354 252.01 138.278 252.263 138.202C252.516 138.126 252.675 137.974 252.738 137.746C252.814 137.518 252.858 137.157 252.871 136.663L253.232 127.79C253.257 127.347 253.238 127.03 253.175 126.84C253.112 126.65 252.941 126.523 252.662 126.46C252.396 126.384 251.953 126.321 251.332 126.27C251.319 126.067 251.319 125.871 251.332 125.681C251.763 125.681 252.206 125.687 252.662 125.7C253.118 125.713 253.625 125.719 254.182 125.719C254.372 125.719 254.625 125.719 254.942 125.719C255.259 125.719 255.55 125.713 255.816 125.7L259.749 136.112ZM270.004 139.019C269.979 138.816 269.979 138.614 270.004 138.411C270.359 138.373 270.644 138.329 270.859 138.278C271.074 138.227 271.258 138.139 271.41 138.012C271.562 137.873 271.708 137.67 271.847 137.404C271.986 137.125 272.151 136.739 272.341 136.245L276.445 125.719C276.584 125.668 276.749 125.63 276.939 125.605C277.142 125.58 277.313 125.567 277.452 125.567L281.537 136.416C281.714 136.872 281.86 137.233 281.974 137.499C282.088 137.752 282.215 137.936 282.354 138.05C282.493 138.164 282.671 138.246 282.886 138.297C283.101 138.335 283.399 138.373 283.779 138.411C283.804 138.614 283.804 138.816 283.779 139.019C283.336 139.019 282.88 139.013 282.411 139C281.942 138.987 281.474 138.981 281.005 138.981C280.524 138.981 280.036 138.987 279.542 139C279.061 139.013 278.579 139.019 278.098 139.019C278.06 138.829 278.06 138.626 278.098 138.411C278.719 138.348 279.149 138.291 279.39 138.24C279.631 138.177 279.751 138.025 279.751 137.784C279.751 137.683 279.732 137.569 279.694 137.442C279.656 137.315 279.605 137.157 279.542 136.967L278.459 134.041H274.184L273.234 136.663C273.145 136.904 273.076 137.106 273.025 137.271C272.987 137.423 272.968 137.562 272.968 137.689C272.968 137.968 273.095 138.145 273.348 138.221C273.614 138.284 274.045 138.348 274.64 138.411C274.665 138.626 274.665 138.829 274.64 139.019C274.209 139.019 273.785 139.013 273.367 139C272.949 138.987 272.525 138.981 272.094 138.981C271.739 138.981 271.397 138.987 271.068 139C270.739 139.013 270.384 139.019 270.004 139.019ZM274.469 133.243H278.174L276.312 128.189L274.469 133.243ZM296.732 139.133L288.277 128.037V136.169C288.277 136.65 288.289 137.024 288.315 137.29C288.34 137.543 288.416 137.74 288.543 137.879C288.669 138.006 288.866 138.113 289.132 138.202C289.398 138.291 289.778 138.36 290.272 138.411C290.297 138.614 290.297 138.816 290.272 139.019C289.892 139.019 289.467 139.013 288.999 139C288.543 138.987 288.156 138.981 287.84 138.981C287.523 138.981 287.13 138.987 286.662 139C286.206 139.013 285.794 139.019 285.427 139.019C285.389 138.829 285.389 138.626 285.427 138.411C285.883 138.348 286.237 138.291 286.491 138.24C286.744 138.177 286.928 138.088 287.042 137.974C287.156 137.847 287.225 137.664 287.251 137.423C287.289 137.182 287.308 136.847 287.308 136.416V128.626C287.308 128.119 287.289 127.72 287.251 127.429C287.225 127.138 287.143 126.922 287.004 126.783C286.877 126.631 286.674 126.523 286.396 126.46C286.13 126.384 285.756 126.321 285.275 126.27C285.262 126.08 285.262 125.884 285.275 125.681C285.667 125.681 286.085 125.687 286.529 125.7C286.972 125.713 287.415 125.719 287.859 125.719C287.922 125.719 288.093 125.719 288.372 125.719C288.663 125.719 288.916 125.713 289.132 125.7L296.846 135.846V128.55C296.846 128.069 296.833 127.695 296.808 127.429C296.795 127.163 296.719 126.967 296.58 126.84C296.314 126.561 295.674 126.384 294.661 126.308C294.623 126.093 294.623 125.89 294.661 125.7C294.901 125.7 295.186 125.706 295.516 125.719C295.858 125.719 296.187 125.725 296.504 125.738C296.82 125.738 297.08 125.738 297.283 125.738C297.599 125.738 297.992 125.732 298.461 125.719C298.929 125.706 299.347 125.7 299.715 125.7C299.74 125.89 299.74 126.086 299.715 126.289C299.107 126.365 298.67 126.454 298.404 126.555C298.138 126.644 297.973 126.815 297.91 127.068C297.846 127.321 297.815 127.733 297.815 128.303V139.038C297.688 139.063 297.517 139.082 297.302 139.095C297.086 139.12 296.896 139.133 296.732 139.133ZM300.82 139.019C300.795 138.816 300.795 138.614 300.82 138.411C301.175 138.373 301.46 138.329 301.675 138.278C301.891 138.227 302.074 138.139 302.226 138.012C302.378 137.873 302.524 137.67 302.663 137.404C302.803 137.125 302.967 136.739 303.157 136.245L307.261 125.719C307.401 125.668 307.565 125.63 307.755 125.605C307.958 125.58 308.129 125.567 308.268 125.567L312.353 136.416C312.531 136.872 312.676 137.233 312.79 137.499C312.904 137.752 313.031 137.936 313.17 138.05C313.31 138.164 313.487 138.246 313.702 138.297C313.918 138.335 314.215 138.373 314.595 138.411C314.621 138.614 314.621 138.816 314.595 139.019C314.152 139.019 313.696 139.013 313.227 139C312.759 138.987 312.29 138.981 311.821 138.981C311.34 138.981 310.852 138.987 310.358 139C309.877 139.013 309.396 139.019 308.914 139.019C308.876 138.829 308.876 138.626 308.914 138.411C309.535 138.348 309.966 138.291 310.206 138.24C310.447 138.177 310.567 138.025 310.567 137.784C310.567 137.683 310.548 137.569 310.51 137.442C310.472 137.315 310.422 137.157 310.358 136.967L309.275 134.041H305L304.05 136.663C303.962 136.904 303.892 137.106 303.841 137.271C303.803 137.423 303.784 137.562 303.784 137.689C303.784 137.968 303.911 138.145 304.164 138.221C304.43 138.284 304.861 138.348 305.456 138.411C305.482 138.626 305.482 138.829 305.456 139.019C305.026 139.019 304.601 139.013 304.183 139C303.765 138.987 303.341 138.981 302.91 138.981C302.556 138.981 302.214 138.987 301.884 139C301.555 139.013 301.2 139.019 300.82 139.019ZM305.285 133.243H308.99L307.128 128.189L305.285 133.243ZM323.137 139.285C321.706 139.285 320.458 139.019 319.394 138.487C318.33 137.955 317.5 137.182 316.905 136.169C316.322 135.156 316.031 133.94 316.031 132.521C316.031 131.102 316.322 129.867 316.905 128.816C317.5 127.765 318.33 126.948 319.394 126.365C320.471 125.782 321.731 125.491 323.175 125.491C323.656 125.491 324.169 125.529 324.714 125.605C325.259 125.668 325.727 125.757 326.12 125.871C326.361 125.934 326.582 125.991 326.785 126.042C326.988 126.093 327.19 126.118 327.393 126.118C327.545 126.118 327.697 126.099 327.849 126.061C327.874 126.618 327.9 127.195 327.925 127.79C327.95 128.385 327.988 129.006 328.039 129.652C327.773 129.69 327.551 129.703 327.374 129.69C327.121 128.525 326.658 127.663 325.987 127.106C325.316 126.536 324.423 126.251 323.308 126.251C322.421 126.251 321.661 126.416 321.028 126.745C320.407 127.062 319.901 127.499 319.508 128.056C319.128 128.613 318.849 129.259 318.672 129.994C318.495 130.716 318.406 131.489 318.406 132.312C318.406 133.515 318.59 134.579 318.957 135.504C319.324 136.429 319.882 137.157 320.629 137.689C321.389 138.208 322.339 138.468 323.479 138.468C323.834 138.468 324.226 138.436 324.657 138.373C325.088 138.297 325.499 138.183 325.892 138.031V135.637C325.892 135.244 325.873 134.94 325.835 134.725C325.81 134.497 325.727 134.332 325.588 134.231C325.461 134.13 325.252 134.06 324.961 134.022C324.682 133.971 324.296 133.927 323.802 133.889C323.764 133.686 323.764 133.484 323.802 133.281C324.068 133.281 324.391 133.287 324.771 133.3C325.151 133.3 325.531 133.306 325.911 133.319C326.304 133.319 326.627 133.319 326.88 133.319C327.273 133.319 327.722 133.313 328.229 133.3C328.748 133.287 329.192 133.281 329.559 133.281C329.584 133.471 329.584 133.667 329.559 133.87C329.04 133.933 328.666 133.997 328.438 134.06C328.21 134.123 328.071 134.25 328.02 134.44C327.969 134.63 327.944 134.953 327.944 135.409V136.017C327.944 136.612 327.957 137.113 327.982 137.518C328.02 137.923 328.052 138.215 328.077 138.392C326.316 138.987 324.67 139.285 323.137 139.285ZM332.202 139.019C332.176 138.829 332.176 138.626 332.202 138.411C332.797 138.348 333.221 138.291 333.475 138.24C333.728 138.177 333.886 138.05 333.95 137.86C334.013 137.657 334.045 137.334 334.045 136.891V128.056C334.045 127.524 334.013 127.144 333.95 126.916C333.886 126.688 333.722 126.542 333.456 126.479C333.202 126.403 332.784 126.34 332.202 126.289C332.176 126.099 332.176 125.896 332.202 125.681C332.531 125.681 332.816 125.687 333.057 125.7C333.31 125.7 333.563 125.7 333.817 125.7C334.07 125.7 334.374 125.706 334.729 125.719C335.083 125.719 335.533 125.719 336.078 125.719C337.078 125.719 338.016 125.719 338.89 125.719C339.764 125.706 340.492 125.7 341.075 125.7C341.657 125.687 341.999 125.681 342.101 125.681C342.151 126.15 342.208 126.631 342.272 127.125C342.348 127.619 342.43 128.145 342.519 128.702C342.303 128.727 342.094 128.727 341.892 128.702C341.74 128.322 341.562 127.986 341.36 127.695C341.157 127.404 340.948 127.182 340.733 127.03C340.492 126.853 340.201 126.72 339.859 126.631C339.529 126.542 339.118 126.498 338.624 126.498H336.135V131.685H337.18C337.788 131.685 338.25 131.647 338.567 131.571C338.883 131.482 339.118 131.299 339.27 131.02C339.422 130.729 339.542 130.273 339.631 129.652C339.859 129.614 340.074 129.614 340.277 129.652C340.264 130.209 340.251 130.64 340.239 130.944C340.239 131.235 340.239 131.451 340.239 131.59C340.239 131.729 340.239 131.843 340.239 131.932C340.239 132.008 340.239 132.071 340.239 132.122L340.277 134.63C340.087 134.668 339.871 134.668 339.631 134.63C339.555 133.959 339.441 133.477 339.289 133.186C339.137 132.895 338.909 132.711 338.605 132.635C338.313 132.559 337.895 132.521 337.351 132.521H336.135V136.644C336.135 137.075 336.135 137.423 336.135 137.689C336.147 137.942 336.16 138.107 336.173 138.183H338.776C339.409 138.183 339.916 138.132 340.296 138.031C340.688 137.917 341.011 137.752 341.265 137.537C341.442 137.398 341.651 137.157 341.892 136.815C342.132 136.46 342.36 136.055 342.576 135.599C342.778 135.574 342.975 135.574 343.165 135.599C343.038 136.308 342.93 136.948 342.842 137.518C342.753 138.088 342.677 138.582 342.614 139C342.044 139 341.423 139 340.752 139C340.08 139 339.409 139 338.738 139C338.066 138.987 337.452 138.981 336.895 138.981C336.35 138.981 335.913 138.981 335.584 138.981C334.988 138.981 334.501 138.987 334.121 139C333.753 139 333.424 139 333.133 139C332.854 139.013 332.544 139.019 332.202 139.019ZM354.406 136.112L358.472 125.7C358.738 125.713 359.017 125.719 359.308 125.719C359.599 125.719 359.846 125.719 360.049 125.719C360.15 125.719 360.334 125.719 360.6 125.719C360.879 125.706 361.176 125.7 361.493 125.7C361.822 125.7 362.12 125.7 362.386 125.7C362.665 125.687 362.855 125.681 362.956 125.681C362.994 125.871 362.994 126.067 362.956 126.27H362.918C362.335 126.333 361.911 126.397 361.645 126.46C361.379 126.511 361.214 126.637 361.151 126.84C361.1 127.03 361.075 127.347 361.075 127.79L361.227 136.663C361.227 137.056 361.24 137.366 361.265 137.594C361.29 137.822 361.36 137.987 361.474 138.088C361.588 138.189 361.772 138.265 362.025 138.316C362.278 138.354 362.639 138.392 363.108 138.43C363.146 138.62 363.146 138.816 363.108 139.019C363.007 139.019 362.817 139.013 362.538 139C362.272 139 361.974 139 361.645 139C361.328 139 361.031 139 360.752 139C360.486 138.987 360.302 138.981 360.201 138.981C360.1 138.981 359.916 138.987 359.65 139C359.384 139 359.093 139 358.776 139C358.459 139 358.168 139 357.902 139C357.636 139.013 357.452 139.019 357.351 139.019C357.338 138.829 357.338 138.633 357.351 138.43H357.389C357.946 138.367 358.352 138.31 358.605 138.259C358.858 138.196 359.01 138.069 359.061 137.879C359.124 137.676 359.156 137.353 359.156 136.91L358.985 126.726L354.197 138.981C354.108 139.019 353.969 139.044 353.779 139.057C353.589 139.07 353.424 139.076 353.285 139.076L348.782 127.125L348.478 136.91C348.465 137.328 348.484 137.632 348.535 137.822C348.586 137.999 348.738 138.126 348.991 138.202C349.244 138.278 349.669 138.354 350.264 138.43C350.315 138.633 350.315 138.829 350.264 139.019C350.137 139.019 349.916 139.013 349.599 139C349.295 139 348.985 139 348.668 139C348.364 138.987 348.142 138.981 348.003 138.981C347.927 138.981 347.775 138.987 347.547 139C347.332 139 347.091 139 346.825 139C346.559 139 346.312 139 346.084 139C345.869 139.013 345.723 139.019 345.647 139.019C345.622 138.816 345.622 138.62 345.647 138.43C346.242 138.354 346.667 138.278 346.92 138.202C347.173 138.126 347.332 137.974 347.395 137.746C347.471 137.518 347.515 137.157 347.528 136.663L347.889 127.79C347.914 127.347 347.895 127.03 347.832 126.84C347.769 126.65 347.598 126.523 347.319 126.46C347.053 126.384 346.61 126.321 345.989 126.27C345.976 126.067 345.976 125.871 345.989 125.681C346.42 125.681 346.863 125.687 347.319 125.7C347.775 125.713 348.282 125.719 348.839 125.719C349.029 125.719 349.282 125.719 349.599 125.719C349.916 125.719 350.207 125.713 350.473 125.7L354.406 136.112ZM365.801 139.019C365.776 138.829 365.776 138.626 365.801 138.411C366.397 138.348 366.821 138.291 367.074 138.24C367.328 138.177 367.486 138.05 367.549 137.86C367.613 137.657 367.644 137.334 367.644 136.891V128.056C367.644 127.524 367.613 127.144 367.549 126.916C367.486 126.688 367.321 126.542 367.055 126.479C366.802 126.403 366.384 126.34 365.801 126.289C365.776 126.099 365.776 125.896 365.801 125.681C366.131 125.681 366.416 125.687 366.656 125.7C366.91 125.7 367.163 125.7 367.416 125.7C367.67 125.7 367.974 125.706 368.328 125.719C368.683 125.719 369.133 125.719 369.677 125.719C370.678 125.719 371.615 125.719 372.489 125.719C373.363 125.706 374.092 125.7 374.674 125.7C375.257 125.687 375.599 125.681 375.7 125.681C375.751 126.15 375.808 126.631 375.871 127.125C375.947 127.619 376.03 128.145 376.118 128.702C375.903 128.727 375.694 128.727 375.491 128.702C375.339 128.322 375.162 127.986 374.959 127.695C374.757 127.404 374.548 127.182 374.332 127.03C374.092 126.853 373.8 126.72 373.458 126.631C373.129 126.542 372.717 126.498 372.223 126.498H369.734V131.685H370.779C371.387 131.685 371.85 131.647 372.166 131.571C372.483 131.482 372.717 131.299 372.869 131.02C373.021 130.729 373.142 130.273 373.23 129.652C373.458 129.614 373.674 129.614 373.876 129.652C373.864 130.209 373.851 130.64 373.838 130.944C373.838 131.235 373.838 131.451 373.838 131.59C373.838 131.729 373.838 131.843 373.838 131.932C373.838 132.008 373.838 132.071 373.838 132.122L373.876 134.63C373.686 134.668 373.471 134.668 373.23 134.63C373.154 133.959 373.04 133.477 372.888 133.186C372.736 132.895 372.508 132.711 372.204 132.635C371.913 132.559 371.495 132.521 370.95 132.521H369.734V136.644C369.734 137.075 369.734 137.423 369.734 137.689C369.747 137.942 369.76 138.107 369.772 138.183H372.375C373.009 138.183 373.515 138.132 373.895 138.031C374.288 137.917 374.611 137.752 374.864 137.537C375.042 137.398 375.251 137.157 375.491 136.815C375.732 136.46 375.96 136.055 376.175 135.599C376.378 135.574 376.574 135.574 376.764 135.599C376.638 136.308 376.53 136.948 376.441 137.518C376.353 138.088 376.277 138.582 376.213 139C375.643 139 375.023 139 374.351 139C373.68 139 373.009 139 372.337 139C371.666 138.987 371.052 138.981 370.494 138.981C369.95 138.981 369.513 138.981 369.183 138.981C368.588 138.981 368.1 138.987 367.72 139C367.353 139 367.024 139 366.732 139C366.454 139.013 366.143 139.019 365.801 139.019ZM390.647 139.133L382.192 128.037V136.169C382.192 136.65 382.204 137.024 382.23 137.29C382.255 137.543 382.331 137.74 382.458 137.879C382.584 138.006 382.781 138.113 383.047 138.202C383.313 138.291 383.693 138.36 384.187 138.411C384.212 138.614 384.212 138.816 384.187 139.019C383.807 139.019 383.382 139.013 382.914 139C382.458 138.987 382.071 138.981 381.755 138.981C381.438 138.981 381.045 138.987 380.577 139C380.121 139.013 379.709 139.019 379.342 139.019C379.304 138.829 379.304 138.626 379.342 138.411C379.798 138.348 380.152 138.291 380.406 138.24C380.659 138.177 380.843 138.088 380.957 137.974C381.071 137.847 381.14 137.664 381.166 137.423C381.204 137.182 381.223 136.847 381.223 136.416V128.626C381.223 128.119 381.204 127.72 381.166 127.429C381.14 127.138 381.058 126.922 380.919 126.783C380.792 126.631 380.589 126.523 380.311 126.46C380.045 126.384 379.671 126.321 379.19 126.27C379.177 126.08 379.177 125.884 379.19 125.681C379.582 125.681 380 125.687 380.444 125.7C380.887 125.713 381.33 125.719 381.774 125.719C381.837 125.719 382.008 125.719 382.287 125.719C382.578 125.719 382.831 125.713 383.047 125.7L390.761 135.846V128.55C390.761 128.069 390.748 127.695 390.723 127.429C390.71 127.163 390.634 126.967 390.495 126.84C390.229 126.561 389.589 126.384 388.576 126.308C388.538 126.093 388.538 125.89 388.576 125.7C388.816 125.7 389.101 125.706 389.431 125.719C389.773 125.719 390.102 125.725 390.419 125.738C390.735 125.738 390.995 125.738 391.198 125.738C391.514 125.738 391.907 125.732 392.376 125.719C392.844 125.706 393.262 125.7 393.63 125.7C393.655 125.89 393.655 126.086 393.63 126.289C393.022 126.365 392.585 126.454 392.319 126.555C392.053 126.644 391.888 126.815 391.825 127.068C391.761 127.321 391.73 127.733 391.73 128.303V139.038C391.603 139.063 391.432 139.082 391.217 139.095C391.001 139.12 390.811 139.133 390.647 139.133ZM398.911 139.019C398.886 138.829 398.886 138.626 398.911 138.411C399.544 138.348 399.994 138.291 400.26 138.24C400.526 138.177 400.691 138.05 400.754 137.86C400.817 137.67 400.849 137.347 400.849 136.891V126.517H399.481C398.81 126.517 398.278 126.612 397.885 126.802C397.505 126.979 397.195 127.252 396.954 127.619C396.726 127.986 396.498 128.455 396.27 129.025C396.067 129.05 395.865 129.05 395.662 129.025C395.738 128.417 395.808 127.834 395.871 127.277C395.947 126.72 396.01 126.181 396.061 125.662C396.884 125.713 397.796 125.744 398.797 125.757C399.798 125.757 400.836 125.757 401.913 125.757C403.002 125.757 404.047 125.757 405.048 125.757C406.061 125.744 406.973 125.713 407.784 125.662C407.835 126.169 407.885 126.707 407.936 127.277C407.987 127.834 408.05 128.417 408.126 129.025C407.911 129.05 407.702 129.05 407.499 129.025C407.258 128.442 407.018 127.967 406.777 127.6C406.536 127.233 406.226 126.96 405.846 126.783C405.479 126.606 404.959 126.517 404.288 126.517H402.939V136.644C402.939 137.037 402.952 137.347 402.977 137.575C403.002 137.803 403.072 137.968 403.186 138.069C403.313 138.17 403.509 138.246 403.775 138.297C404.041 138.335 404.408 138.373 404.877 138.411C404.915 138.614 404.915 138.816 404.877 139.019C404.611 139.019 404.288 139.013 403.908 139C403.541 139 403.173 139 402.806 139C402.439 138.987 402.128 138.981 401.875 138.981C401.634 138.981 401.33 138.987 400.963 139C400.608 139 400.241 139 399.861 139C399.494 139.013 399.177 139.019 398.911 139.019Z" fill="url(#paint1_linear_470_800)"/>
<path d="M66 2.29989L68.3326 0L111.408 46.611L122.76 59.0304L126.026 62.7103L128.825 66.3901L131.158 70.2232L133.179 74.363L136.289 82.4893L138 92.9154V97.9752L137.689 102.575L137.222 107.328L136.289 111.928L134.423 116.068L132.091 119.747L129.603 123.427L126.648 126.8L123.382 129.56L119.495 131.86L115.607 133.547L111.408 135.08L103.944 136L96.7905 135.847L89.3261 133.853L83.5724 130.787L78.4406 125.114L74.5529 118.521L72.6868 112.234L71.9093 104.875L72.6868 98.4352L74.5529 92.9154L77.1965 87.0891L81.7063 81.7227L83.5724 79.8827L85.7495 78.5028L88.5486 77.4295L91.1922 76.9696H93.6803L96.1685 77.1229L98.5011 77.2762L100.834 77.8895L102.855 78.8095L104.721 80.3427L106.121 82.0293L107.054 84.0225V87.7024H106.121L105.499 85.2492L104.255 83.1026L102.078 80.8027L98.8121 79.1161L94.9244 78.8095L91.6587 79.1161L88.5486 79.7294L86.838 80.496L85.2829 81.5693L83.1058 83.8692L80.6177 86.6291L78.9071 89.3889L77.6631 92.1488L76.419 95.522L75.486 99.0485L75.0194 101.808V105.335L75.486 109.015L76.419 112.694L78.1296 116.221L79.9957 119.747L82.7948 122.507L85.594 125.114L89.3261 127.414L92.9028 128.947L96.7905 129.56H100.367H103.944L107.676 129.1L111.253 128.027L105.032 127.874L99.4341 126.8L94.4579 125.114L90.2592 122.047L86.9935 118.521L85.4384 116.528L84.3499 114.381L83.5724 112.234L82.9503 110.088L82.7948 107.941L83.1058 105.795L84.1944 108.708L85.594 111.468L88.8596 116.681L90.8812 118.828L93.3693 120.821L96.324 122.507L99.4341 123.427L105.499 124.194L111.408 124.041L114.829 123.274L118.095 122.047L121.672 119.901L124.782 117.448L128.359 113.768L130.691 109.628L132.402 103.955L133.179 98.4352L131.313 101.655L129.292 104.875L128.203 106.408L126.959 107.788L125.715 109.015L124.16 110.241L122.605 111.468L120.894 112.694L117.317 114.228L115.607 114.688L113.896 114.841H112.186L110.32 114.688L115.607 112.694L117.94 111.775L119.961 110.548L122.138 108.861L124.16 106.868L126.026 104.722L127.581 102.268L128.67 100.122L129.603 97.8219L130.691 92.9154L131.158 86.6291L129.758 79.2694L127.114 72.9831L123.227 67.31L119.028 61.637L114.207 56.5772L66 2.29989Z" fill="url(#paint2_linear_470_800)"/>
<path d="M71 2.6036L68.8235 0L26.1463 46.7117L14.9845 59.1171L11.7735 62.7928L9.02125 66.4685L6.72771 70.2973L4.73998 74.4324L1.68194 82.5495L0 92.964V98.018L0.305809 102.613L0.764519 107.36L1.68194 111.955L3.51676 116.09L5.8103 119.766L8.25674 123.441L11.1619 126.811L14.3728 129.568L18.1954 131.865L22.018 133.55L26.1463 135.081L33.4857 136L40.5192 135.847L47.8585 133.856L53.5159 130.793L58.5617 125.126L62.3843 118.541L64.2191 112.261L64.9836 104.91L64.2191 98.4775L62.3843 92.964L59.7849 87.1441L55.3507 81.7838L53.5159 79.9459L51.3753 78.5676L48.623 77.4955L46.0237 77.036H43.5773L41.1308 77.1892L38.8373 77.3423L36.5437 77.9549L34.556 78.8739L32.7212 80.4054L31.3451 82.0901L30.4276 84.0811V87.7568H31.3451L31.9567 85.3063L33.1799 83.1622L35.3205 80.8649L38.5315 79.1802L42.354 78.8739L45.565 79.1802L48.623 79.9459L50.305 80.5586L51.834 81.6306L53.9746 83.9279L56.4211 86.6847L58.103 89.4414L59.3262 92.1982L60.5494 95.5676L61.4669 99.0901L61.9256 101.847V105.369L61.4669 109.045L60.5494 112.721L58.8675 116.243L57.0327 119.766L54.2804 122.523L51.5282 125.126L47.8585 127.423L44.3418 128.955L40.5192 129.568H37.0024H33.4857L29.816 129.108L26.2992 128.036L32.4154 127.883L37.9199 126.811L42.8127 125.126L46.9411 122.063L50.1521 118.541L51.6811 116.55L52.7514 114.405L53.5159 112.261L54.1275 110.117L54.2804 107.973L53.9746 105.829L52.9043 108.739L51.5282 111.495L48.3172 116.703L46.3295 118.847L43.8831 120.838L40.9779 122.523L37.9199 123.441L31.9567 124.207L26.1463 124.054L22.7825 123.288L19.5715 122.063L16.0548 119.919L12.9967 117.468L9.47996 113.793L7.18642 109.658L5.50449 103.991L4.73998 98.4775L6.57481 101.694L8.56255 104.91L9.63287 106.441L10.8561 107.82L12.0793 109.045L13.6083 110.27L15.1374 111.495L16.8193 112.721L20.336 114.252L22.018 114.712L23.6999 114.865H25.3818L27.2167 114.712L22.018 112.721L19.7244 111.802L17.7367 110.577L15.5961 108.892L13.6083 106.901L11.7735 104.757L10.2445 102.306L9.17416 100.162L8.25674 97.8649L7.18642 92.964L6.72771 86.6847L8.10384 79.3333L10.7032 73.054L14.5257 67.3874L18.6541 61.7207L23.3941 56.6667L71 2.6036Z" fill="url(#paint3_linear_470_800)"/>
<path d="M58 28.75L58.5057 28.5L59.0115 28.75L59.2644 29L59.5172 29.75L59.7701 30.5L60.2759 31.75L61.2874 33.25L62.2989 34.5L62.8046 35L63.8161 35.25L65.0805 34.75L66.092 33.5L66.8506 31.5L67.3563 29.25L67.8621 26.5L68.1149 24.75L68.3678 23L68.6207 21.25L68.8736 21L69.3793 21.25L69.6322 22L69.8851 25L70.3908 29L70.8966 31L71.6552 33L71.908 33.5L72.4138 34.25L72.9195 34.75L73.6782 35.25H74.4368L75.1954 35L75.954 34.5L76.4598 34L77.2184 32.75L77.977 31.5L78.7356 30L79.2414 28.75L79.7471 28.5L80 28.75L77.977 43.25L73.931 43.75L68.8736 44L64.3218 43.75L60.2759 43L58 28.75Z" fill="url(#paint4_linear_470_800)"/>
<ellipse cx="58" cy="28.5" rx="1" ry="1.5" fill="url(#paint5_linear_470_800)"/>
<circle cx="69" cy="22" r="1" fill="url(#paint6_linear_470_800)"/>
<path d="M223.62 89.16H188.356L190.636 79.584H221.036L223.62 89.16ZM206.748 45.84L183.796 115H171.18L205.076 18.936H208.724L242.62 115H229.548L206.748 45.84ZM295.516 116.52C290.348 116.52 285.484 115.608 280.924 113.784C276.465 111.859 272.513 108.92 269.068 104.968C265.724 101.016 263.089 96 261.164 89.92C259.239 83.84 258.276 76.5947 258.276 68.184C258.276 60.7867 258.985 54.352 260.404 48.88C261.823 43.3067 263.748 38.6453 266.18 34.896C268.713 31.0453 271.551 28.0053 274.692 25.776C277.935 23.5467 281.279 21.9253 284.724 20.912C288.271 19.8987 291.817 19.392 295.364 19.392C302.356 19.392 308.284 21.064 313.148 24.408C318.113 27.752 321.863 32.2613 324.396 37.936L314.668 43.56L313.3 44.168L312.844 43.104C313.047 42.2933 312.996 41.5333 312.692 40.824C312.388 40.1147 311.831 39.0507 311.02 37.632C308.588 34.4907 306.055 32.3627 303.42 31.248C300.887 30.1333 298.201 29.576 295.364 29.576C291.817 29.576 288.524 30.4373 285.484 32.16C282.444 33.7813 279.809 36.2133 277.58 39.456C275.351 42.6987 273.628 46.7013 272.412 51.464C271.297 56.1253 270.74 61.4453 270.74 67.424C270.74 73.2 271.348 78.4693 272.564 83.232C273.881 87.8933 275.655 91.896 277.884 95.24C280.113 98.584 282.697 101.168 285.636 102.992C288.676 104.816 291.919 105.728 295.364 105.728C297.897 105.728 300.279 105.323 302.508 104.512C304.839 103.701 306.967 102.435 308.892 100.712C310.817 98.9893 312.489 96.9627 313.908 94.632L323.028 101.016C319.887 106.285 316.087 110.187 311.628 112.72C307.169 115.253 301.799 116.52 295.516 116.52ZM344.612 115V20.152H403.892V31.096H356.924V59.976H395.684V71.224H356.924V104.056H403.436V115H344.612Z" fill="url(#paint7_linear_470_800)"/>
<line x1="170" y1="145.5" x2="403" y2="145.5" stroke="#E5C85C"/>
<path d="M66.75 155.616L69.6719 150L72.25 155.616L75 160L69.6719 159.726L64 160L66.75 155.616Z" fill="url(#paint8_linear_470_800)"/>
<path d="M70.0325 126L69.7148 141.793L67.3321 147.715L64.4729 153.333L61.1372 158.193L57.0072 162.748L64.7906 162.444H69.8736H75.4332L80.9928 162.748L77.3394 158.193L73.8448 152.726L71.4621 147.715L69.7148 141.793L70.0325 126L72.2563 138.604L73.6065 144.07L75.9097 149.233L78.2924 153.941L81.4693 158.193L85.4404 162.748L91 167L85.4404 166.089L80.5162 165.633L74.7978 165.33H69.2383H63.0433L57.0072 165.633L47 167L51.4477 163.356L55.7365 159.256L59.7076 154.548L62.7256 149.233L65.1083 144.07L66.6968 138.604L70.0325 126Z" fill="url(#paint9_linear_470_800)"/>
<path d="M71.3423 168L83.3304 168.87L91.8482 170.261L98 172H45L51.3095 170.261L58.4077 168.87L71.3423 168Z" fill="url(#paint10_linear_470_800)"/>
<path d="M65 132L64.8421 136.018L64.2105 139.887L62.9474 143.607L61.2105 147.03L57.8947 151.94L53 157L56.6316 150.899L59.9474 145.095L62.9474 138.548L65 132Z" fill="url(#paint11_linear_470_800)"/>
<path d="M116.928 40.1518C120.199 39.1144 123.477 38.8856 126.792 39.0468C127.02 39.0578 127.244 39.1307 127.471 39.1632C127.852 39.2176 128.008 39.4428 128 39.8578C127.991 40.2976 127.772 40.4318 127.407 40.4816C126.129 40.6558 124.844 40.7541 123.581 41.0774C119.408 42.1459 115.851 44.5055 112.486 47.2472C106.485 52.1377 101.681 58.2557 97.338 64.8095C92.3559 72.3272 87.9114 80.2271 83.4143 88.0859C82.4661 89.7428 81.6145 91.4811 81.1162 93.3766C80.9145 94.1438 80.6293 95.0177 81.2697 95.6507C81.9694 96.3424 82.7709 95.8651 83.434 95.4801C85.4861 94.2886 86.9153 92.3674 88.2533 90.3829C89.3001 88.8302 90.2504 87.2015 91.2434 85.6064C91.4173 85.3271 91.6077 85.1085 91.9427 85.3607C92.2543 85.5953 92.0964 85.8547 91.959 86.0863C90.0998 89.2194 88.2953 92.399 85.6198 94.8437C85.0258 95.3864 84.4136 95.8963 83.6971 96.2398C81.1937 97.4397 79.2275 96.1158 79.1442 93.1625C79.0886 91.1911 79.6869 89.385 80.4003 87.6145C82.0118 83.6153 84.2045 79.9755 86.3882 76.3297C87.043 75.2365 87.6579 74.1151 88.3202 73.0274C88.613 72.5467 88.5915 72.2548 88.133 71.8856C85.7513 69.9677 85.7362 70.0157 83.7358 72.3478C78.6631 78.2615 73.7552 84.3458 68.3946 89.9643C63.3144 95.289 57.939 100.212 51.7354 103.999C47.4867 106.592 43.0183 108.452 38.1295 108.881C35.3806 109.122 32.6227 109.064 29.9567 108.081C24.9817 106.245 22.3868 102.243 21.436 96.8945C20.4013 91.0737 21.2992 85.4128 23.1711 79.9306C26.3291 70.6814 31.3739 62.8479 38.5398 56.682C42.6287 53.1637 47.0961 50.409 52.3085 49.3688C55.6313 48.7056 58.9729 48.474 62.2611 49.6615C66.1675 51.0723 68.4992 54.4558 68.754 58.8998C68.8547 60.6569 68.9425 62.4056 68.7704 64.2388C70.1401 64.2161 71.4487 64.2352 72.7579 64.3071C76.0769 64.4894 79.3024 65.1406 82.4269 66.3397C83.1107 66.6021 83.5038 66.4447 83.9863 65.9022C89.1007 60.1526 94.2675 54.4603 100.184 49.6419C105.265 45.504 110.721 42.134 116.928 40.1518ZM29.4185 75.49C27.4624 79.5087 25.8613 83.6807 24.8615 88.0989C23.9832 91.9804 23.5207 95.8944 24.4553 99.8508C25.4247 103.954 27.5823 106.773 31.6499 107.468C34.0285 107.875 36.3974 107.718 38.7522 107.247C43.1113 106.376 46.8713 104.078 50.4885 101.452C56.0506 97.413 60.8714 92.4499 65.5 87.2655C70.901 81.2161 75.9625 74.8243 81.373 68.7828C81.488 68.6544 81.6405 68.5381 81.6238 68.3132C81.5305 68.0961 81.3267 68.051 81.1421 67.9758C77.2562 66.3928 73.2203 65.7746 69.0855 65.7577C68.5162 65.7554 68.3421 66.0756 68.2395 66.5764C66.5691 74.7266 62.9544 81.7915 57.8897 88.0236C55.5891 90.8545 52.7915 92.9118 49.3875 93.916C44.9311 95.2308 40.9427 92.8847 39.9238 88.3249C39.2649 85.3764 39.9169 82.6164 41.0474 79.9408C42.684 76.0677 45.5083 73.3737 48.6975 71.0754C54.2247 67.0922 60.4077 65.1904 66.962 64.5607C67.7159 64.4883 67.9766 64.1994 67.9638 63.4389C67.9418 62.137 67.9762 60.8336 67.9389 59.5324C67.8024 54.7685 65.1323 51.3231 60.8399 50.2966C58.0326 49.6253 55.2945 50.0185 52.6251 50.9805C47.61 52.7879 43.4757 56.1019 39.7806 60.0829C35.6024 64.5846 32.2721 69.7706 29.4185 75.49ZM44.9417 75.5175C44.3584 76.2829 43.7036 76.9979 43.2046 77.8227C41.4493 80.7242 40.1377 83.7738 40.6232 87.4014C41.1547 91.3727 44.5097 93.9747 48.1752 93.2906C51.2384 92.7189 53.802 91.1415 55.945 88.805C61.5843 82.6567 65.4319 75.3948 67.3243 66.9575C67.4038 66.6028 67.5306 66.2454 67.294 65.8696C65.4576 65.8887 63.6482 66.1696 61.8418 66.5028C55.4213 67.6872 49.7675 70.5509 44.9417 75.5175ZM94.7487 63.2417C99.6379 56.4163 105.102 50.2191 111.662 45.2168C102.075 51.2475 94.7429 60.0336 87.0277 68.5034C88.0117 69.2098 88.8816 69.8342 89.7888 70.4854C91.4426 68.0697 93.0587 65.7088 94.7487 63.2417Z" fill="url(#paint12_linear_470_800)"/>
<path d="M61 44L64.3153 44.3866L68.6396 44.5882L72.6757 44.4874L77 44.1849L76.7117 45.4958L72.6757 45.8992L68.6396 46L64.3153 45.7983L61.2883 45.4118L61 44Z" fill="#EBD061"/>
<path d="M68.4941 35.0477H68.3455L68.23 35.0953L67.9492 35.0477L67.652 35L67.4044 35.0238L67.1649 35.0953L66.9668 35.1986L66.7934 35.3337L66.6861 35.4608L66.6118 35.5959L66.554 35.731L66.521 35.8978L66.5045 36.0568V36.2395L66.521 36.4222L66.62 36.6209L66.8925 36.891L68.2382 37.916V37.2804L67.4374 36.6765L67.2062 36.5017L66.9916 36.319L66.9173 36.1442L66.8925 35.9694L66.9173 35.7946L67.0246 35.58L67.1649 35.4291L67.3878 35.294L67.652 35.2543L67.9492 35.294L68.1639 35.4132L68.3125 35.58L68.3786 35.882H68.4941V35.0477Z" fill="#825B00"/>
<path d="M68.0805 36.5889H69.5005V36.708H69.3189L69.195 36.7557L69.0877 36.8431L69.0464 36.9305L69.0299 37.0497V37.1689V37.4311V37.9555L69.0382 38.3607L69.063 38.4481L69.0877 38.5673V38.7262L69.0795 38.9646L69.0464 39.1314L69.0052 39.2506L68.8566 39.4731L68.6832 39.6638L68.4768 39.8306L68.2374 39.9657L67.9567 40.0372L67.676 40.0849H67.3953L67.1558 40.069L66.9412 40.0054L66.743 39.9339L66.5614 39.8306L66.4045 39.7273L66.289 39.6161L66.1816 39.481L66.0991 39.338L66.033 39.1473L66.0083 38.9646L66 38.7818L66.0083 38.5991L66.0578 38.3687L66.1486 38.1462L66.2559 37.9555L66.4045 37.7807L66.5366 37.6933L66.3798 37.9952L66.289 38.2654L66.2147 38.5276V38.7818L66.2229 38.9566L66.2724 39.1235L66.3467 39.2665L66.4293 39.3698L66.5119 39.4651L66.6109 39.5605L66.7265 39.632L66.9412 39.7273L67.2054 39.775L67.4696 39.7989L67.7337 39.7671L67.9814 39.6876L68.2043 39.5605L68.3942 39.3777L68.485 39.2586L68.5346 39.1314L68.5924 38.8851L68.6089 38.6309L68.5924 37.8601V37.1371L68.5759 36.9941L68.5346 36.9067L68.4933 36.8272L68.419 36.7557L68.3034 36.708H68.0805V36.5889Z" fill="#825B00"/>
<path d="M70.4739 36.5732H71.9104V36.6845H71.8114L71.6545 36.6924L71.5059 36.7401L71.3656 36.8354L69.7144 38.6232L71.8031 40.7764L72.1499 41.126L72.5709 41.4438L72.8186 41.563L73.0993 41.6902L73.3883 41.7776L73.6112 41.8411L73.7928 41.8967L73.9992 41.9444V42H73.6112H73.3057L72.992 41.9762L72.6865 41.8967L72.4223 41.8093L72.1829 41.6902L71.9682 41.563L71.7536 41.42L69.1777 38.79L70.7876 36.8354L70.7299 36.7322L70.606 36.6845L70.4739 36.6765V36.5732Z" fill="#825B00"/>
<path d="M68.5511 40.1409L69.0382 39.7754V40.6176L69.1125 40.7368L69.2364 40.8083L69.3684 40.856L69.5005 40.8798V40.9831H68.0723V40.8798L68.2291 40.856L68.353 40.8083L68.4768 40.7368L68.5511 40.6176V40.1409Z" fill="#825B00"/>
<circle cx="79.5" cy="28.5" r="1.5" fill="url(#paint13_linear_470_800)"/>
<defs>
<linearGradient id="paint0_linear_470_800" x1="298" y1="152" x2="298" y2="172" gradientUnits="userSpaceOnUse">
<stop stop-color="#98660F"/>
<stop offset="0.425" stop-color="#F7E47D"/>
<stop offset="0.735" stop-color="#C4931D"/>
<stop offset="1" stop-color="#FBEB7C"/>
</linearGradient>
<linearGradient id="paint1_linear_470_800" x1="291" y1="122" x2="291" y2="147" gradientUnits="userSpaceOnUse">
<stop stop-color="#98660F"/>
<stop offset="0.425" stop-color="#F7E47D"/>
<stop offset="0.735" stop-color="#C4931D"/>
<stop offset="1" stop-color="#FBEB7C"/>
</linearGradient>
<linearGradient id="paint2_linear_470_800" x1="102" y1="0" x2="102" y2="136" gradientUnits="userSpaceOnUse">
<stop stop-color="#B1861E"/>
<stop offset="0.305" stop-color="#F7E67E"/>
<stop offset="0.54" stop-color="#C3901B"/>
<stop offset="0.765" stop-color="#F7E47D"/>
<stop offset="1" stop-color="#94761E"/>
</linearGradient>
<linearGradient id="paint3_linear_470_800" x1="35.5" y1="0" x2="35.5" y2="136" gradientUnits="userSpaceOnUse">
<stop stop-color="#B1861E"/>
<stop offset="0.305" stop-color="#F7E67E"/>
<stop offset="0.54" stop-color="#C3901B"/>
<stop offset="0.765" stop-color="#F7E47D"/>
<stop offset="1" stop-color="#94761E"/>
</linearGradient>
<linearGradient id="paint4_linear_470_800" x1="69" y1="21" x2="69" y2="44" gradientUnits="userSpaceOnUse">
<stop stop-color="#B07318"/>
<stop offset="0.35" stop-color="#F5E47C"/>
<stop offset="0.65" stop-color="#C4931E"/>
<stop offset="1" stop-color="#F1D96B"/>
</linearGradient>
<linearGradient id="paint5_linear_470_800" x1="58" y1="27" x2="58" y2="30" gradientUnits="userSpaceOnUse">
<stop stop-color="#B07318"/>
<stop offset="0.35" stop-color="#F5E47C"/>
<stop offset="0.65" stop-color="#C4931E"/>
<stop offset="1" stop-color="#F1D96B"/>
</linearGradient>
<linearGradient id="paint6_linear_470_800" x1="69" y1="21" x2="69" y2="23" gradientUnits="userSpaceOnUse">
<stop stop-color="#B07318"/>
<stop offset="0.35" stop-color="#F5E47C"/>
<stop offset="0.65" stop-color="#C4931E"/>
<stop offset="1" stop-color="#F1D96B"/>
</linearGradient>
<linearGradient id="paint7_linear_470_800" x1="290.5" y1="11" x2="290.5" y2="117" gradientUnits="userSpaceOnUse">
<stop stop-color="#98660F"/>
<stop offset="0.425" stop-color="#F7E47D"/>
<stop offset="0.735" stop-color="#C4931D"/>
<stop offset="1" stop-color="#FBEB7C"/>
</linearGradient>
<linearGradient id="paint8_linear_470_800" x1="69.5" y1="150" x2="69.5" y2="160" gradientUnits="userSpaceOnUse">
<stop stop-color="#B1861E"/>
<stop offset="0.305" stop-color="#F7E67E"/>
<stop offset="0.54" stop-color="#C3901B"/>
<stop offset="0.765" stop-color="#F7E47D"/>
<stop offset="1" stop-color="#94761E"/>
</linearGradient>
<linearGradient id="paint9_linear_470_800" x1="69" y1="126" x2="69" y2="167" gradientUnits="userSpaceOnUse">
<stop stop-color="#B1861E"/>
<stop offset="0.305" stop-color="#F7E67E"/>
<stop offset="0.54" stop-color="#C3901B"/>
<stop offset="0.765" stop-color="#F7E47D"/>
<stop offset="1" stop-color="#94761E"/>
</linearGradient>
<linearGradient id="paint10_linear_470_800" x1="71.5" y1="168" x2="71.5" y2="172" gradientUnits="userSpaceOnUse">
<stop stop-color="#B1861E"/>
<stop offset="0.305" stop-color="#F7E67E"/>
<stop offset="0.54" stop-color="#C3901B"/>
<stop offset="0.765" stop-color="#F7E47D"/>
<stop offset="1" stop-color="#94761E"/>
</linearGradient>
<linearGradient id="paint11_linear_470_800" x1="59" y1="132" x2="59" y2="157" gradientUnits="userSpaceOnUse">
<stop stop-color="#B1861E"/>
<stop offset="0.305" stop-color="#F7E67E"/>
<stop offset="0.54" stop-color="#C3901B"/>
<stop offset="0.765" stop-color="#F7E47D"/>
<stop offset="1" stop-color="#94761E"/>
</linearGradient>
<linearGradient id="paint12_linear_470_800" x1="74.5" y1="39" x2="74.5" y2="109" gradientUnits="userSpaceOnUse">
<stop stop-color="#B37C1D"/>
<stop offset="0.31" stop-color="#F7E67E"/>
<stop offset="0.555" stop-color="#C5921D"/>
<stop offset="0.805" stop-color="#F7E47D"/>
<stop offset="1" stop-color="#CA931E"/>
</linearGradient>
<linearGradient id="paint13_linear_470_800" x1="79.5" y1="27" x2="79.5" y2="30" gradientUnits="userSpaceOnUse">
<stop stop-color="#B07318"/>
<stop offset="0.35" stop-color="#F5E47C"/>
<stop offset="0.65" stop-color="#C4931E"/>
<stop offset="1" stop-color="#F1D96B"/>
</linearGradient>
</defs>
</svg>
