<svg width="208" height="211" viewBox="0 0 208 211" fill="none" xmlns="http://www.w3.org/2000/svg">
<rect width="208" height="211" fill="black"/>
<path d="M101.5 22.5L103.5 20L146.408 66.611L157.76 79.0304L161.026 82.7103L163.825 86.3901L166.158 90.2232L168.179 94.363L171.289 102.489L172.689 107.702L173 112.915V117.975L172.689 122.575L172.222 127.328L171.289 131.928L169.423 136.068L167.091 139.747L164.603 143.427L161.648 146.8L158.382 149.56L154.495 151.86L150.607 153.547L146.408 155.08L138.944 156L131.79 155.847L127.903 155L124.326 153.853L118.572 150.787L113.441 145.114L109.553 138.521L107.687 132.234L106.909 124.875V121.808L107.687 118.435L109.553 112.915L112.197 107.089L116.706 101.723L118.572 99.8827L120.749 98.5028L123.549 97.4295L126.192 96.9696H128.68L131.168 97.1229L133.501 97.2762L135.834 97.8895L137.855 98.8095L139 99.5L139.721 100.343L141.121 102.029L142.054 104.023V107.702H141.121L140.499 105.249L139.255 103.103L137.078 100.803L133.812 99.1161L129.924 98.8095L126.659 99.1161L123.549 99.7294L121.838 100.496L120.283 101.569L118.106 103.869L115.618 106.629L113.907 109.389L112.663 112.149L111.419 115.522L110.486 119.048L110.019 121.808V125.335L110.486 129.015L111.419 132.694L113.13 136.221L114.996 139.747L117.795 142.507L120.594 145.114L124.326 147.414L127.903 148.947L131.79 149.56H135.367H138.944L142.676 149.1L146.253 148.027L140.032 147.874L134.434 146.8L129.458 145.114L125.259 142.047L121.994 138.521L120.438 136.528L119.35 134.381L118.572 132.234L117.95 130.088L117.795 127.941L118.106 125.795L119.194 128.708L120.594 131.468L123.86 136.681L125.881 138.828L128.369 140.821L131.324 142.507L134.434 143.427L140.499 144.194L146.408 144.041L149.829 143.274L153.095 142.047L156.672 139.901L159.782 137.448L163.359 133.768L165.691 129.628L167.402 123.955L168.179 118.435L166.313 121.655L164.292 124.875L163.203 126.408L161.959 127.788L160.715 129.015L159.16 130.241L157.605 131.468L155.894 132.694L152.317 134.228L150.607 134.688L148.896 134.841H147.186L145.32 134.688L150.607 132.694L152.94 131.775L154.961 130.548L157.138 128.861L159.16 126.868L161.026 124.722L162.581 122.268L163.67 120.122L164.603 117.822L165.691 112.915L166.158 106.629L164.758 99.2694L162.114 92.9831L158.227 87.31L154.028 81.637L149.207 76.5772L101.5 22.5Z" fill="url(#paint0_linear_322_684)"/>
<path d="M106 22.6036L103.5 20L61.1463 66.7117L49.9845 79.1171L46.7735 82.7928L44.0213 86.4685L41.7277 90.2973L39.74 94.4324L36.6819 102.55L35 112.964V118.018L35.3058 122.613L35.7645 127.36L36.6819 131.955L38.5168 136.09L40.8103 139.766L43.2567 143.441L46.1619 146.811L49.3728 149.568L53.1954 151.865L57.018 153.55L61.1463 155.081L68.4857 156L75.5192 155.847L82.8585 153.856L88.5159 150.793L93.5617 145.126L97.3843 138.541L99.2191 132.261L99.9836 124.91L99.8676 121.847L99.2191 118.477L97.3843 112.964L94.7849 107.144L90.3507 101.784L88.5159 99.9459L86.3753 98.5676L83.623 97.4955L81.0237 97.036H78.5773L76.1308 97.1892L73.8373 97.3423L71.5437 97.9549L69.556 98.8739L67.7212 100.405L66.3451 102.09L65.4276 104.081V107.757H66.3451L66.9567 105.306L68.1799 103.162L70.3205 100.865L73.5315 99.1802L77.354 98.8739L80.565 99.1802L83.623 99.9459L85.305 100.559L86.834 101.631L88.9746 103.928L91.4211 106.685L93.103 109.441L94.3262 112.198L95.5494 115.568L96.4669 119.09L96.9256 121.847V125.369L96.4669 129.045L95.5494 132.721L93.8675 136.243L92.0327 139.766L89.2804 142.523L86.5282 145.126L82.8585 147.423L79.3418 148.955L75.5192 149.568H72.0024H68.4857L64.816 149.108L61.2992 148.036L67.4154 147.883L72.9199 146.811L77.8127 145.126L81.9411 142.063L85.1521 138.541L86.6811 136.55L87.7514 134.405L88.5159 132.261L89.1275 130.117L89.2804 127.973L88.9746 125.829L87.9043 128.739L86.5282 131.495L83.3172 136.703L81.3295 138.847L78.8831 140.838L75.9779 142.523L72.9199 143.441L66.9567 144.207L61.1463 144.054L57.7825 143.288L54.5715 142.063L51.0548 139.919L47.9967 137.468L44.48 133.793L42.1864 129.658L40.5045 123.991L39.74 118.477L41.5748 121.694L43.5625 124.91L44.6329 126.441L45.8561 127.82L47.0793 129.045L48.6083 130.27L50.1374 131.495L51.8193 132.721L55.336 134.252L57.018 134.712L58.6999 134.865H60.3818L62.2167 134.712L57.018 132.721L54.7244 131.802L52.7367 130.577L50.5961 128.892L48.6083 126.901L46.7735 124.757L45.2445 122.306L44.1742 120.162L43.2567 117.865L42.1864 112.964L41.7277 106.685L43.1038 99.3333L45.7032 93.054L49.5257 87.3874L53.6541 81.7207L58.3941 76.6667L106 22.6036Z" fill="url(#paint1_linear_322_684)"/>
<path d="M101.75 175.616L104.672 170L107.25 175.616L110 180L104.672 179.726L99 180L101.75 175.616Z" fill="url(#paint2_linear_322_684)"/>
<path d="M105.032 146L104.715 161.793L102.332 167.715L99.4729 173.333L96.1372 178.193L92.0072 182.748L99.7906 182.444H104.874H110.433L115.993 182.748L112.339 178.193L108.845 172.726L106.462 167.715L104.715 161.793L105.032 146L107.256 158.604L108.606 164.07L110.91 169.233L113.292 173.941L116.469 178.193L120.44 182.748L126 187L120.44 186.089L115.516 185.633L109.798 185.33H104.238H98.0433L92.0072 185.633L82 187L86.4477 183.356L90.7365 179.256L94.7076 174.548L97.7256 169.233L100.108 164.07L101.697 158.604L105.032 146Z" fill="url(#paint3_linear_322_684)"/>
<path d="M105.342 187L117.33 187.87L125.848 189.261L132 191H79L85.3095 189.261L92.4077 187.87L105.342 187Z" fill="url(#paint4_linear_322_684)"/>
<path d="M100 152L99.8421 156.018L99.2105 159.887L97.9474 163.607L96.2105 167.03L92.8947 171.94L88 177L91.6316 170.899L94.9474 165.095L97.9474 158.548L100 152Z" fill="url(#paint5_linear_322_684)"/>
<path d="M151.928 65.0531C155.199 64.1046 158.477 63.8954 161.792 64.0428C162.02 64.0529 162.244 64.1195 162.471 64.1492C162.852 64.1989 163.008 64.4049 163 64.7843C162.991 65.1864 162.772 65.309 162.407 65.3546C161.129 65.5139 159.844 65.6038 158.581 65.8993C154.408 66.8762 150.851 69.0336 147.486 71.5403C141.485 76.0116 136.681 81.6052 132.338 87.5973C127.356 94.4706 122.911 101.693 118.414 108.879C117.466 110.393 116.615 111.983 116.116 113.716C115.914 114.417 115.629 115.216 116.27 115.795C116.969 116.427 117.771 115.991 118.434 115.639C120.486 114.55 121.915 112.793 123.253 110.979C124.3 109.559 125.25 108.07 126.243 106.612C126.417 106.356 126.608 106.156 126.943 106.387C127.254 106.601 127.096 106.839 126.959 107.05C125.1 109.915 123.295 112.822 120.62 115.057C120.026 115.553 119.414 116.02 118.697 116.334C116.194 117.431 114.228 116.22 114.144 113.52C114.089 111.718 114.687 110.066 115.4 108.448C117.012 104.791 119.204 101.463 121.388 98.13C122.043 97.1305 122.658 96.1053 123.32 95.1108C123.613 94.6713 123.591 94.4044 123.133 94.0668C120.751 92.3133 120.736 92.3572 118.736 94.4894C113.663 99.8962 108.755 105.459 103.395 110.596C98.3144 115.464 92.939 119.966 86.7354 123.427C82.4867 125.798 78.0183 127.499 73.1295 127.891C70.3806 128.111 67.6227 128.059 64.9567 127.159C59.9817 125.481 57.3868 121.822 56.436 116.932C55.4013 111.61 56.2992 106.435 58.1711 101.422C61.3291 92.9658 66.3739 85.8038 73.5398 80.1664C77.6287 76.9497 82.0961 74.4311 87.3085 73.48C90.6313 72.8737 93.9729 72.662 97.2611 73.7476C101.168 75.0375 103.499 78.131 103.754 82.1941C103.855 83.8006 103.943 85.3994 103.77 87.0754C105.14 87.0547 106.449 87.0722 107.758 87.1379C111.077 87.3046 114.302 87.8999 117.427 88.9963C118.111 89.2362 118.504 89.0923 118.986 88.5963C124.101 83.3395 129.267 78.1351 135.184 73.7298C140.265 69.9465 145.721 66.8654 151.928 65.0531ZM64.4185 97.3623C62.4624 101.037 60.8613 104.851 59.8615 108.89C58.9832 112.439 58.5207 116.018 59.4553 119.635C60.4247 123.387 62.5823 125.964 66.6499 126.599C69.0285 126.971 71.3974 126.828 73.7522 126.398C78.1113 125.601 81.8713 123.5 85.4885 121.099C91.0506 117.406 95.8714 112.869 100.5 108.128C105.901 102.598 110.963 96.7536 116.373 91.23C116.488 91.1126 116.64 91.0063 116.624 90.8006C116.53 90.6022 116.327 90.5609 116.142 90.4922C112.256 89.0449 108.22 88.4797 104.086 88.4642C103.516 88.462 103.342 88.7548 103.24 89.2127C101.569 96.6643 97.9544 103.124 92.8897 108.822C90.5891 111.41 87.7915 113.291 84.3875 114.209C79.9311 115.411 75.9427 113.266 74.9238 109.097C74.2649 106.401 74.9169 103.878 76.0474 101.432C77.684 97.8905 80.5083 95.4273 83.6975 93.326C89.2247 89.6843 95.4077 87.9455 101.962 87.3698C102.716 87.3036 102.977 87.0394 102.964 86.3441C102.942 85.1538 102.976 83.9621 102.939 82.7725C102.802 78.417 100.132 75.2668 95.8399 74.3283C93.0326 73.7145 90.2945 74.074 87.6251 74.9536C82.61 76.6061 78.4757 79.636 74.7806 83.2758C70.6024 87.3916 67.2721 92.1331 64.4185 97.3623ZM79.9417 97.3875C79.3584 98.0872 78.7036 98.7409 78.2046 99.4951C76.4493 102.148 75.1377 104.936 75.6232 108.253C76.1547 111.884 79.5097 114.263 83.1752 113.637C86.2384 113.114 88.802 111.672 90.945 109.536C96.5843 103.915 100.432 97.2752 102.324 89.5612C102.404 89.2369 102.531 88.9101 102.294 88.5665C100.458 88.584 98.6482 88.8408 96.8418 89.1454C90.4213 90.2283 84.7675 92.8465 79.9417 97.3875ZM129.749 86.1638C134.638 79.9235 140.102 74.2575 146.662 69.6839C137.075 75.1977 129.743 83.2307 122.028 90.9745C123.012 91.6204 123.882 92.1913 124.789 92.7867C126.443 90.578 128.059 88.4194 129.749 86.1638Z" fill="url(#paint6_linear_322_684)"/>
<path d="M93 48.75L93.5057 48.5L94.0115 48.75L94.2644 49L94.5172 49.75L94.7701 50.5L95.2759 51.75L96.2874 53.25L97.2989 54.5L97.8046 55L98.8161 55.25L100.08 54.75L101.092 53.5L101.851 51.5L102.356 49.25L102.862 46.5L103.115 44.75L103.368 43L103.621 41.25L103.874 41L104.379 41.25L104.632 42L104.885 45L105.391 49L105.897 51L106.655 53L106.908 53.5L107.414 54.25L107.92 54.75L108.678 55.25H109.437L110.195 55L110.954 54.5L111.46 54L112.218 52.75L112.977 51.5L113.736 50L114.241 48.75L114.747 48.5L115 48.75L112.977 63.25L108.931 63.75L103.874 64L99.3218 63.75L95.2759 63L93 48.75Z" fill="url(#paint7_linear_322_684)"/>
<ellipse cx="93" cy="48.5" rx="1" ry="1.5" fill="url(#paint8_linear_322_684)"/>
<circle cx="104" cy="42" r="1" fill="url(#paint9_linear_322_684)"/>
<circle cx="114.5" cy="48.5" r="1.5" fill="url(#paint10_linear_322_684)"/>
<path d="M96 64L99.3153 64.3866L103.64 64.5882L107.676 64.4874L112 64.1849L111.712 65.4958L107.676 65.8992L103.64 66L99.3153 65.7983L96.2883 65.4118L96 64Z" fill="#EBD061"/>
<path d="M103.494 48.5598H103.346L103.23 48.6035L102.949 48.5598L102.652 48.5161L102.404 48.538L102.165 48.6035L101.967 48.6982L101.793 48.8221L101.686 48.9386L101.612 49.0625L101.554 49.1863L101.521 49.3393L101.504 49.485V49.6526L101.521 49.8201L101.62 50.0023L101.892 50.2499L103.238 51.1897V50.6069L102.437 50.0533L102.206 49.893L101.992 49.7254L101.917 49.5652L101.892 49.4049L101.917 49.2446L102.025 49.0479L102.165 48.9095L102.388 48.7857L102.652 48.7492L102.949 48.7857L103.164 48.8949L103.313 49.0479L103.379 49.3247H103.494V48.5598Z" fill="#825B00"/>
<path d="M103.08 49.9731H104.501V50.0824H104.319L104.195 50.1261L104.088 50.2063L104.046 50.2864L104.03 50.3957V50.505V50.7454V51.2262L104.038 51.5977L104.063 51.6778L104.088 51.7871V51.9328L104.079 52.1514L104.046 52.3043L104.005 52.4136L103.857 52.6176L103.683 52.7924L103.477 52.9454L103.237 53.0693L102.957 53.1348L102.676 53.1785H102.395L102.156 53.164L101.941 53.1057L101.743 53.0401L101.561 52.9454L101.405 52.8507L101.289 52.7487L101.182 52.6249L101.099 52.4938L101.033 52.3189L101.008 52.1514L101 51.9838L101.008 51.8163L101.058 51.605L101.149 51.401L101.256 51.2262L101.405 51.0659L101.537 50.9858L101.38 51.2626L101.289 51.5103L101.215 51.7507V51.9838L101.223 52.1441L101.272 52.2971L101.347 52.4282L101.429 52.5229L101.512 52.6103L101.611 52.6977L101.727 52.7633L101.941 52.8507L102.205 52.8944L102.47 52.9163L102.734 52.8871L102.981 52.8143L103.204 52.6977L103.394 52.5302L103.485 52.4209L103.535 52.3043L103.592 52.0785L103.609 51.8454L103.592 51.1387V50.4758L103.576 50.3447L103.535 50.2645L103.493 50.1917L103.419 50.1261L103.303 50.0824H103.08V49.9731Z" fill="#825B00"/>
<path d="M105.474 49.9585H106.91V50.0605H106.811L106.655 50.0678L106.506 50.1115L106.366 50.1989L104.714 51.838L106.803 53.8123L107.15 54.1328L107.571 54.4242L107.819 54.5335L108.099 54.65L108.388 54.7302L108.611 54.7885L108.793 54.8395L108.999 54.8832V54.9342H108.611H108.306L107.992 54.9123L107.687 54.8395L107.422 54.7593L107.183 54.65L106.968 54.5335L106.754 54.4024L104.178 51.991L105.788 50.1989L105.73 50.1042L105.606 50.0605L105.474 50.0532V49.9585Z" fill="#825B00"/>
<path d="M103.551 53.2296L104.038 52.8945V53.6667L104.113 53.776L104.236 53.8416L104.368 53.8853L104.501 53.9071V54.0019H103.072V53.9071L103.229 53.8853L103.353 53.8416L103.477 53.776L103.551 53.6667V53.2296Z" fill="#825B00"/>
<defs>
<linearGradient id="paint0_linear_322_684" x1="137" y1="20" x2="137" y2="156" gradientUnits="userSpaceOnUse">
<stop stop-color="#B1861E"/>
<stop offset="0.305" stop-color="#F7E67E"/>
<stop offset="0.54" stop-color="#C3901B"/>
<stop offset="0.765" stop-color="#F7E47D"/>
<stop offset="1" stop-color="#94761E"/>
</linearGradient>
<linearGradient id="paint1_linear_322_684" x1="70.5" y1="20" x2="70.5" y2="156" gradientUnits="userSpaceOnUse">
<stop stop-color="#B1861E"/>
<stop offset="0.305" stop-color="#F7E67E"/>
<stop offset="0.54" stop-color="#C3901B"/>
<stop offset="0.765" stop-color="#F7E47D"/>
<stop offset="1" stop-color="#94761E"/>
</linearGradient>
<linearGradient id="paint2_linear_322_684" x1="104.5" y1="170" x2="104.5" y2="180" gradientUnits="userSpaceOnUse">
<stop stop-color="#B1861E"/>
<stop offset="0.305" stop-color="#F7E67E"/>
<stop offset="0.54" stop-color="#C3901B"/>
<stop offset="0.765" stop-color="#F7E47D"/>
<stop offset="1" stop-color="#94761E"/>
</linearGradient>
<linearGradient id="paint3_linear_322_684" x1="104" y1="146" x2="104" y2="187" gradientUnits="userSpaceOnUse">
<stop stop-color="#B1861E"/>
<stop offset="0.305" stop-color="#F7E67E"/>
<stop offset="0.54" stop-color="#C3901B"/>
<stop offset="0.765" stop-color="#F7E47D"/>
<stop offset="1" stop-color="#94761E"/>
</linearGradient>
<linearGradient id="paint4_linear_322_684" x1="105.5" y1="187" x2="105.5" y2="191" gradientUnits="userSpaceOnUse">
<stop stop-color="#B1861E"/>
<stop offset="0.305" stop-color="#F7E67E"/>
<stop offset="0.54" stop-color="#C3901B"/>
<stop offset="0.765" stop-color="#F7E47D"/>
<stop offset="1" stop-color="#94761E"/>
</linearGradient>
<linearGradient id="paint5_linear_322_684" x1="94" y1="152" x2="94" y2="177" gradientUnits="userSpaceOnUse">
<stop stop-color="#B1861E"/>
<stop offset="0.305" stop-color="#F7E67E"/>
<stop offset="0.54" stop-color="#C3901B"/>
<stop offset="0.765" stop-color="#F7E47D"/>
<stop offset="1" stop-color="#94761E"/>
</linearGradient>
<linearGradient id="paint6_linear_322_684" x1="109.5" y1="64" x2="109.5" y2="128" gradientUnits="userSpaceOnUse">
<stop stop-color="#B37C1D"/>
<stop offset="0.31" stop-color="#F7E67E"/>
<stop offset="0.555" stop-color="#C5921D"/>
<stop offset="0.805" stop-color="#F7E47D"/>
<stop offset="1" stop-color="#CA931E"/>
</linearGradient>
<linearGradient id="paint7_linear_322_684" x1="104" y1="41" x2="104" y2="64" gradientUnits="userSpaceOnUse">
<stop stop-color="#B07318"/>
<stop offset="0.35" stop-color="#F5E47C"/>
<stop offset="0.65" stop-color="#C4931E"/>
<stop offset="1" stop-color="#F1D96B"/>
</linearGradient>
<linearGradient id="paint8_linear_322_684" x1="93" y1="47" x2="93" y2="50" gradientUnits="userSpaceOnUse">
<stop stop-color="#B07318"/>
<stop offset="0.35" stop-color="#F5E47C"/>
<stop offset="0.65" stop-color="#C4931E"/>
<stop offset="1" stop-color="#F1D96B"/>
</linearGradient>
<linearGradient id="paint9_linear_322_684" x1="104" y1="41" x2="104" y2="43" gradientUnits="userSpaceOnUse">
<stop stop-color="#B07318"/>
<stop offset="0.35" stop-color="#F5E47C"/>
<stop offset="0.65" stop-color="#C4931E"/>
<stop offset="1" stop-color="#F1D96B"/>
</linearGradient>
<linearGradient id="paint10_linear_322_684" x1="114.5" y1="47" x2="114.5" y2="50" gradientUnits="userSpaceOnUse">
<stop stop-color="#B07318"/>
<stop offset="0.35" stop-color="#F5E47C"/>
<stop offset="0.65" stop-color="#C4931E"/>
<stop offset="1" stop-color="#F1D96B"/>
</linearGradient>
</defs>
</svg>
